<?xml version="1.0" standalone="no"?>
<!DOCTYPE svg PUBLIC "-//W3C//DTD SVG 20010904//EN"
 "http://www.w3.org/TR/2001/REC-SVG-20010904/DTD/svg10.dtd">
<svg version="1.0" xmlns="http://www.w3.org/2000/svg"
 width="5120.000000pt" height="3200.000000pt" viewBox="0 0 5120.000000 3200.000000"
 preserveAspectRatio="xMidYMid meet">
<metadata>
Created by potrace 1.16, written by Peter Selinger 2001-2019
</metadata>
<g transform="translate(0.000000,3200.000000) scale(0.100000,-0.100000)"
fill="#000000" stroke="none">
<path d="M25416 26879 c-34 -27 -36 -77 -3 -107 72 -67 172 34 102 103 -30 30
-64 32 -99 4z"/>
<path d="M25397 26248 c4 -365 10 -427 50 -458 49 -38 143 -23 211 35 43 36
35 43 -12 11 -21 -14 -44 -22 -52 -19 -35 13 -39 44 -45 403 -3 195 -7 356 -8
358 0 1 -34 2 -74 2 l-73 0 3 -332z"/>
<path d="M25888 26566 c-45 -12 -125 -63 -114 -73 3 -3 17 4 32 16 15 11 37
21 50 21 45 0 48 -23 34 -301 -14 -275 -11 -322 22 -381 48 -85 171 -126 279
-95 70 21 148 88 191 164 17 30 32 53 33 51 8 -8 -26 -410 -39 -456 -36 -132
-124 -212 -233 -212 -108 0 -168 87 -166 240 1 41 6 88 12 104 6 16 10 30 9
32 -6 5 -132 -28 -145 -39 -16 -12 -17 -126 -1 -178 28 -96 130 -164 260 -175
225 -19 387 91 428 292 9 48 65 963 58 969 -2 1 -37 -29 -79 -69 l-76 -71 -11
-178 c-11 -173 -12 -181 -46 -250 -43 -89 -84 -139 -142 -173 -82 -48 -156
-30 -197 47 -20 36 -20 92 -1 494 6 120 4 145 -10 172 -26 52 -75 68 -148 49z"/>
<path d="M24758 26546 c-112 -30 -189 -122 -229 -273 l-23 -88 -12 76 c-19
122 -67 192 -150 219 -48 16 -170 8 -212 -14 -83 -43 -148 -146 -181 -283
l-18 -77 -11 104 c-6 58 -15 136 -18 174 l-7 69 -70 -7 c-39 -4 -73 -9 -76
-11 -4 -4 78 -804 83 -812 3 -4 138 16 143 21 3 3 -2 78 -11 167 -19 176 -16
266 15 386 40 159 121 253 220 255 49 1 83 -22 109 -71 23 -45 32 -101 60
-371 12 -107 28 -214 36 -237 20 -56 54 -77 114 -71 51 5 131 53 151 91 11 19
8 18 -20 -6 -18 -15 -44 -27 -57 -27 -34 0 -49 40 -63 175 -30 276 52 516 194
571 53 20 89 13 128 -24 40 -38 53 -96 82 -360 14 -130 30 -254 35 -274 13
-47 61 -88 103 -88 60 1 177 74 177 111 0 7 -15 -1 -33 -19 -39 -37 -71 -41
-88 -10 -7 12 -24 133 -40 269 -15 135 -33 265 -40 288 -19 65 -80 128 -142
146 -60 18 -86 18 -149 1z"/>
<path d="M27121 26445 c-70 -22 -147 -81 -191 -147 -132 -199 -106 -488 54
-597 123 -84 278 -65 375 45 l39 44 -5 -65 c-5 -50 -2 -70 11 -91 25 -36 79
-57 130 -48 43 7 142 52 133 60 -3 3 -19 -2 -36 -10 -58 -30 -91 -15 -91 41 0
19 25 185 56 369 31 184 54 338 51 341 -3 2 -39 -20 -80 -51 -40 -31 -77 -56
-80 -56 -4 0 -16 18 -26 39 -58 113 -206 168 -340 126z m230 -45 c41 -21 87
-76 109 -131 12 -28 10 -54 -15 -208 -30 -186 -48 -240 -105 -305 -70 -80
-189 -99 -263 -43 -69 52 -104 180 -87 316 19 145 53 233 123 309 73 79 159
102 238 62z"/>
<path d="M23380 26365 c0 -5 -22 -47 -48 -92 l-48 -82 -49 34 c-164 114 -376
34 -456 -172 -41 -107 -27 -279 33 -397 33 -64 107 -136 173 -167 146 -70 313
-11 373 131 11 25 22 54 26 65 6 16 11 9 26 -35 10 -30 30 -65 45 -77 51 -44
143 -20 204 54 39 47 41 65 2 24 -34 -37 -65 -40 -85 -8 -8 12 -51 173 -96
357 -73 305 -97 393 -100 365z m-206 -129 c19 -8 52 -30 74 -50 39 -36 41 -40
82 -213 34 -143 41 -189 37 -239 -16 -200 -195 -292 -327 -168 -133 124 -190
419 -110 574 19 36 60 79 95 98 28 16 109 15 149 -2z"/>
<path d="M22015 26289 c-131 -13 -240 -63 -311 -142 -110 -123 -91 -304 44
-396 57 -39 136 -60 308 -81 194 -24 202 -25 269 -55 120 -52 178 -190 125
-296 -23 -43 -83 -92 -137 -110 -112 -37 -280 25 -417 152 -42 39 -76 67 -76
62 0 -4 22 -64 48 -133 56 -144 45 -137 203 -139 164 -2 316 49 404 135 157
152 121 373 -74 465 -53 25 -151 43 -342 63 -189 20 -255 50 -302 141 -69 134
44 296 209 297 81 1 147 -36 254 -144 l90 -90 -40 112 c-49 136 -56 150 -78
151 -9 0 -39 4 -67 7 -27 4 -77 4 -110 1z"/>
<path d="M28453 25824 c-24 -14 -43 -27 -43 -30 0 -6 35 -73 48 -93 8 -11 19
-8 61 15 28 16 51 33 51 37 0 17 -52 97 -63 97 -7 0 -31 -12 -54 -26z"/>
<path d="M29321 25456 c2 -2 87 -41 189 -87 1450 -652 2790 -1677 3816 -2919
1997 -2415 2785 -5595 2164 -8730 -26 -135 -47 -246 -46 -248 5 -4 93 330 135
513 157 675 229 1297 238 2047 9 777 -42 1346 -188 2070 -380 1897 -1290 3617
-2639 4992 -1005 1024 -2178 1798 -3488 2300 -160 61 -192 72 -181 62z"/>
<path d="M20085 24961 l-18 -99 -44 15 c-56 19 -164 14 -215 -11 -83 -40 -151
-139 -168 -244 -30 -178 89 -401 258 -484 59 -29 76 -33 152 -33 77 0 90 3
140 31 91 52 150 168 138 270 -5 41 2 43 24 7 44 -75 116 -101 175 -64 36 23
80 92 89 142 6 33 6 33 -17 -11 -27 -52 -51 -61 -83 -31 -12 11 -107 153 -211
316 -105 162 -193 295 -196 295 -4 0 -15 -45 -24 -99z m-50 -115 c47 -21 57
-34 149 -176 109 -169 133 -230 121 -314 -26 -198 -197 -245 -357 -97 -196
181 -261 452 -136 568 52 49 143 57 223 19z"/>
<path d="M19025 24685 c-49 -48 -19 -125 50 -125 69 0 99 77 50 125 -13 14
-36 25 -50 25 -14 0 -37 -11 -50 -25z"/>
<path d="M19215 24440 c-27 -22 -49 -45 -48 -50 2 -5 132 -182 290 -392 179
-240 298 -407 316 -448 68 -148 18 -304 -109 -339 -81 -22 -195 54 -262 177
l-29 54 -46 -63 c-38 -53 -44 -67 -35 -84 72 -136 226 -187 364 -120 87 42
194 153 223 230 33 88 27 206 -16 290 -35 67 -568 779 -586 782 -7 1 -34 -16
-62 -37z"/>
<path d="M18665 24405 c-30 -30 -32 -64 -4 -99 26 -33 79 -36 109 -6 30 30 27
83 -6 109 -35 28 -69 26 -99 -4z"/>
<path d="M18863 24162 l-53 -47 205 -250 c250 -304 267 -323 312 -331 76 -14
152 64 159 164 3 38 2 41 -4 17 -20 -72 -46 -91 -87 -61 -11 8 -119 136 -240
285 -121 148 -224 270 -230 270 -5 0 -34 -21 -62 -47z"/>
<path d="M18251 24060 l-55 -48 91 -99 c50 -54 112 -118 138 -143 26 -25 55
-56 65 -70 l18 -25 -65 3 c-82 5 -141 -16 -201 -72 -190 -175 -101 -507 173
-644 172 -86 387 -27 472 131 12 22 18 55 18 103 l0 71 26 -20 c34 -24 94 -25
128 0 14 10 36 39 48 64 24 49 40 134 23 124 -5 -3 -10 -16 -10 -28 0 -30 -27
-67 -49 -67 -26 0 -56 30 -422 415 -182 193 -334 351 -338 352 -3 1 -30 -20
-60 -47z m268 -416 c28 -11 82 -61 184 -167 79 -84 151 -166 160 -184 20 -39
22 -122 4 -166 -19 -45 -89 -105 -132 -113 -111 -20 -226 28 -344 147 -110
109 -146 183 -146 295 0 70 3 85 27 121 49 75 156 104 247 67z"/>
<path d="M17771 23099 c0 -19 3 -64 7 -100 l8 -67 -72 -4 c-257 -17 -360 -314
-189 -546 52 -72 123 -130 202 -168 77 -36 196 -45 274 -19 68 23 149 101 167
161 16 55 15 152 -2 201 l-14 40 50 -33 c68 -46 117 -47 163 -1 37 37 55 90
54 157 l-1 45 -9 -44 c-11 -56 -29 -76 -63 -67 -14 3 -141 106 -284 229 -142
122 -266 228 -275 236 -15 12 -17 10 -16 -20z m7 -195 c20 -4 83 -51 176 -130
124 -107 149 -133 175 -186 52 -103 40 -213 -28 -271 -51 -42 -103 -52 -180
-33 -89 22 -160 67 -252 156 -121 119 -172 248 -135 343 36 95 133 143 244
121z"/>
<path d="M16792 22450 l-41 -60 72 -50 c40 -28 140 -97 222 -153 83 -57 150
-109 150 -115 0 -13 -296 -452 -305 -452 -3 0 -106 69 -229 154 l-225 154 -43
-61 -44 -62 28 -20 c15 -11 229 -158 475 -326 l447 -307 40 61 c22 33 38 64
35 68 -2 4 -108 78 -234 165 -126 86 -227 161 -224 165 15 25 298 435 304 443
5 4 86 -45 182 -111 95 -66 201 -138 235 -161 l62 -42 42 61 c22 33 37 65 33
69 -13 12 -917 631 -929 636 -6 3 -30 -23 -53 -56z"/>
<path d="M22017 20763 c-53 -120 -68 -326 -34 -453 86 -320 372 -588 810 -759
301 -117 623 -165 1117 -165 382 -1 668 31 1005 109 82 19 151 35 152 35 2 0
3 -1306 3 -2903 0 -1953 -3 -2930 -10 -2987 -30 -242 -75 -347 -205 -477 l-92
-93 594 0 595 0 -68 68 c-85 85 -127 155 -170 280 -68 200 -64 -6 -64 3278 l0
2969 88 23 c786 204 1536 373 1869 421 164 24 335 37 649 51 432 19 651 -12
1022 -146 225 -81 456 -206 566 -308 43 -39 66 -45 86 -21 20 24 4 57 -67 146
-162 202 -429 451 -625 582 -219 146 -489 253 -817 323 -185 40 -427 44 -687
11 -565 -73 -908 -180 -1929 -604 -824 -343 -940 -385 -1345 -482 -357 -87
-595 -116 -869 -108 -209 6 -315 24 -484 81 -441 147 -740 459 -987 1031 -33
74 -63 131 -72 133 -9 2 -21 -12 -31 -35z"/>
<path d="M15865 19990 c25 -50 45 -93 43 -94 -2 -1 -24 -10 -50 -20 -71 -26
-120 -67 -153 -127 -27 -49 -30 -63 -30 -144 0 -79 3 -97 29 -150 57 -116 174
-203 326 -241 122 -31 253 -4 336 69 115 101 127 263 28 392 l-26 35 42 -15
c116 -41 187 9 184 130 -1 28 -9 66 -17 85 l-16 35 6 -47 c6 -52 -7 -78 -38
-78 -10 0 -165 57 -346 126 -180 70 -336 129 -346 132 -15 4 -10 -13 28 -88z
m262 -186 c187 -72 239 -108 282 -192 46 -91 36 -167 -29 -226 -85 -77 -232
-75 -409 5 -214 97 -310 279 -209 395 43 48 109 81 168 83 14 1 102 -29 197
-65z"/>
<path d="M15520 19180 c-6 -11 -14 -42 -17 -68 -10 -91 42 -172 167 -257 30
-20 46 -34 35 -31 -11 3 -74 21 -140 41 -66 19 -125 35 -131 35 -14 0 -49
-129 -38 -140 9 -8 737 -222 763 -224 13 -1 50 96 51 130 0 6 -89 37 -197 68
-261 76 -329 116 -379 221 -27 57 -30 103 -8 160 8 22 16 44 17 49 2 8 -75 36
-100 36 -7 0 -17 -9 -23 -20z"/>
<path d="M21360 19063 c123 -124 165 -218 202 -453 19 -124 19 -4874 0 -5000
-38 -249 -99 -374 -245 -499 l-48 -41 597 0 597 0 -42 33 c-101 80 -192 237
-231 397 -35 147 -42 281 -38 760 3 433 5 460 27 560 82 367 263 646 535 822
237 153 506 261 1011 404 451 128 683 217 933 358 l102 57 0 142 0 141 -52
-50 c-104 -100 -276 -216 -424 -285 -113 -53 -320 -128 -509 -183 -243 -71
-588 -184 -700 -228 -396 -157 -695 -381 -876 -653 l-44 -67 -3 1569 c-2 1067
0 1603 8 1678 15 152 44 263 97 375 37 76 61 110 122 172 l77 78 -592 0 -591
0 87 -87z"/>
<path d="M27935 19053 c-204 -27 -444 -150 -624 -319 -282 -265 -379 -681
-276 -1189 69 -344 276 -833 635 -1500 192 -358 468 -918 616 -1252 156 -352
275 -740 331 -1078 25 -153 25 -468 0 -618 -26 -155 -71 -333 -111 -435 -193
-502 -587 -892 -1106 -1097 -119 -47 -397 -117 -555 -141 -185 -27 -448 -24
-636 9 -673 118 -1190 394 -1602 854 -131 147 -247 303 -336 451 -523 876
-422 1991 237 2602 48 44 131 113 184 153 l98 72 0 123 c0 67 -4 122 -8 122
-22 0 -301 -147 -404 -213 -232 -149 -376 -273 -513 -442 -359 -444 -549
-1041 -506 -1590 47 -596 288 -1142 691 -1568 387 -409 972 -676 1695 -773
201 -28 646 -25 862 4 729 98 1290 361 1723 808 589 607 843 1463 695 2340
-63 375 -206 792 -411 1204 -129 258 -329 590 -701 1161 -384 589 -583 987
-649 1294 -23 109 -23 290 0 375 57 214 207 376 413 447 111 38 303 45 422 14
279 -70 510 -291 530 -504 l6 -72 31 55 c53 92 69 154 69 260 -1 83 -4 101
-27 145 -71 135 -265 253 -473 290 -80 14 -226 18 -300 8z"/>
<path d="M14999 18451 c-52 -42 -17 -131 52 -131 40 0 69 32 69 75 0 66 -69
98 -121 56z"/>
<path d="M15291 18373 c-5 -21 -13 -54 -16 -73 l-6 -35 343 -78 c189 -43 356
-77 371 -77 74 0 113 54 105 143 -4 52 -33 127 -48 127 -5 0 -2 -13 6 -30 9
-16 14 -42 12 -57 -3 -24 -8 -28 -40 -31 -22 -2 -179 29 -367 72 -182 42 -334
76 -340 76 -6 0 -15 -17 -20 -37z"/>
<path d="M15920 17927 c0 -1 9 -20 19 -41 29 -56 13 -86 -46 -86 -18 0 -180
23 -360 50 -181 28 -334 49 -341 48 -9 -2 9 -32 48 -83 l61 -79 -35 -18 c-88
-45 -138 -126 -144 -233 -11 -205 164 -367 413 -382 106 -7 182 11 257 59 165
105 186 315 44 451 l-46 44 57 -5 c68 -6 115 15 134 60 17 41 5 121 -26 174
-22 37 -35 53 -35 41z m-174 -280 c61 -31 127 -101 144 -152 62 -189 -164
-304 -452 -230 -119 31 -220 100 -259 176 -22 45 -25 119 -5 157 21 40 75 88
123 110 42 18 43 18 221 -9 132 -20 191 -33 228 -52z"/>
<path d="M14757 17250 c-9 -24 -70 -900 -63 -907 13 -13 16 8 27 178 7 96 15
177 18 181 3 4 249 -11 546 -32 297 -22 547 -40 556 -40 13 0 18 15 23 71 4
39 6 73 4 75 -2 2 -253 21 -558 44 -304 22 -555 42 -558 44 -2 3 1 88 8 189
12 173 11 235 -3 197z"/>
<path d="M25970 15812 l0 -91 58 -11 c157 -32 279 -69 367 -112 118 -59 283
-201 379 -328 50 -65 116 -173 116 -189 0 -27 18 -7 23 26 6 32 0 49 -35 110
-186 326 -548 605 -876 677 l-32 8 0 -90z"/>
<path d="M15400 15575 l-44 -45 45 -45 45 -45 44 45 44 45 -45 45 -45 45 -44
-45z"/>
<path d="M15581 14300 c-1 -43 46 -325 94 -560 340 -1667 1111 -3222 2242
-4525 271 -312 656 -697 968 -968 1202 -1043 2620 -1785 4150 -2170 605 -153
1167 -242 1820 -289 240 -17 1034 -17 1265 0 1076 80 2017 290 2973 662 97 38
57 32 -69 -11 -773 -261 -1625 -432 -2518 -505 -259 -21 -989 -30 -1271 -15
-1466 77 -2863 447 -4158 1101 -1944 982 -3522 2547 -4513 4475 -440 857 -726
1660 -943 2651 -22 99 -40 168 -40 154z"/>
<path d="M34852 12320 c-40 -9 -89 -53 -108 -97 -21 -49 -18 -129 8 -182 12
-25 44 -68 71 -95 27 -27 43 -46 35 -44 -7 3 -107 45 -222 92 -115 47 -210 85
-211 84 -7 -10 -37 -99 -34 -102 6 -6 761 -316 768 -316 9 0 42 91 36 100 -3
4 -52 27 -110 50 -228 92 -372 244 -335 356 27 81 80 82 260 8 226 -94 263
-105 298 -93 18 6 35 22 42 40 15 34 8 125 -9 142 -10 9 -10 6 -1 -17 14 -38
4 -66 -24 -66 -13 0 -99 31 -192 69 -178 72 -218 82 -272 71z"/>
<path d="M34315 11718 c23 -71 24 -73 74 -95 28 -13 51 -25 51 -28 0 -3 -7
-19 -15 -35 -9 -17 -11 -30 -6 -30 6 0 17 13 26 29 l15 30 237 -115 c272 -131
305 -138 338 -73 17 31 19 93 4 124 -7 16 -8 13 -4 -11 7 -37 -14 -59 -47 -51
-13 4 -126 56 -251 116 l-227 111 16 40 c9 23 14 44 10 47 -3 3 -13 -11 -22
-33 -9 -21 -17 -40 -19 -42 -1 -1 -46 18 -99 43 -54 25 -99 45 -101 45 -1 0 7
-33 20 -72z"/>
<path d="M34392 11308 c-50 -17 -118 -83 -148 -144 -86 -175 30 -374 239 -413
136 -25 248 33 306 159 87 191 -61 400 -289 407 -41 1 -90 -3 -108 -9z m173
-111 c94 -45 187 -133 205 -194 36 -120 -64 -205 -205 -173 -117 26 -254 119
-295 201 -24 46 -26 116 -4 148 34 47 73 63 151 58 56 -3 88 -12 148 -40z"/>
<path d="M33781 10853 c-27 -43 -28 -48 -13 -59 86 -58 632 -392 651 -397 28
-7 70 7 87 31 20 26 28 97 15 129 l-11 28 5 -28 c8 -40 -11 -70 -40 -63 -19 5
-216 125 -587 357 l-78 49 -29 -47z"/>
<path d="M33879 10500 c-49 -26 -116 -102 -145 -163 -72 -159 -17 -319 136
-395 76 -38 125 -46 194 -32 154 32 263 202 215 339 -6 17 -15 31 -21 31 -5 0
-6 -5 -2 -11 34 -55 16 -161 -37 -216 -49 -50 -83 -65 -151 -65 -75 0 -167 43
-231 107 -63 62 -82 106 -82 187 0 80 18 111 86 146 38 20 55 23 122 19 l77
-4 -57 39 c-32 21 -60 38 -63 38 -3 -1 -21 -9 -41 -20z"/>
<path d="M33165 9536 l8 -79 -29 6 c-42 8 -122 -17 -155 -49 -139 -132 -67
-377 137 -471 47 -21 67 -25 128 -21 88 4 144 36 176 98 22 43 27 130 10 174
-12 32 -12 32 30 1 35 -26 78 -32 109 -15 24 12 51 81 50 123 l-2 32 -4 -30
c-5 -35 -20 -55 -39 -55 -8 0 -99 75 -202 167 -103 91 -195 174 -206 182 -18
15 -18 13 -11 -63z m122 -181 c79 -69 114 -108 130 -142 44 -94 21 -188 -54
-220 -71 -29 -168 6 -265 95 -65 61 -100 115 -118 180 -14 54 -6 93 28 133 32
39 54 48 119 48 52 1 53 1 160 -94z"/>
<path d="M32635 9030 l-39 -40 139 -141 c192 -193 247 -239 290 -239 25 0 40
8 59 30 24 29 46 114 32 127 -3 4 -6 -7 -6 -23 0 -33 -15 -54 -39 -54 -8 0
-101 86 -206 190 l-191 190 -39 -40z"/>
<path d="M32477 8867 c-20 -20 -37 -51 -41 -72 -7 -37 12 -120 41 -180 9 -19
-13 -1 -62 52 l-77 82 -39 -31 c-21 -17 -39 -35 -39 -39 0 -7 181 -206 343
-377 l60 -64 38 39 38 38 -106 115 c-112 121 -153 189 -153 252 0 52 15 86 57
125 l36 35 -31 31 -31 31 -34 -37z"/>
<path d="M32100 8514 c0 -17 -3 -51 -6 -76 l-6 -44 -58 4 c-32 2 -74 -1 -94
-8 -47 -15 -110 -88 -126 -145 -52 -184 113 -405 302 -405 132 0 222 101 204
229 l-6 43 40 -36 c22 -20 50 -36 63 -36 30 0 64 25 82 60 18 35 19 48 3 32
-28 -28 -51 -8 -209 186 -206 251 -189 233 -189 196z m-18 -137 c15 -7 65 -59
113 -117 94 -115 122 -178 109 -245 -9 -52 -44 -97 -87 -114 -34 -13 -44 -12
-95 4 -111 34 -240 200 -250 319 -8 101 46 166 138 166 25 -1 57 -6 72 -13z"/>
<path d="M31015 8019 c-22 -17 -39 -34 -38 -39 2 -8 401 -582 450 -648 l24
-32 44 31 43 31 -57 82 c-103 143 -153 266 -154 370 -1 96 41 156 109 156 48
0 82 -35 206 -212 116 -165 146 -194 194 -182 28 7 84 77 83 103 0 10 -3 8 -9
-6 -6 -15 -18 -23 -35 -23 -20 0 -35 15 -77 76 -29 42 -82 117 -118 167 -95
133 -160 163 -256 116 -99 -47 -136 -160 -99 -299 8 -30 13 -55 12 -56 -1 -1
-65 88 -141 197 -76 109 -139 199 -140 199 -1 0 -19 -14 -41 -31z"/>
<path d="M30845 7641 c-83 -14 -175 -77 -201 -138 -31 -73 -2 -158 66 -193 36
-18 57 -21 193 -19 125 2 158 -1 185 -15 41 -21 76 -87 67 -126 -7 -33 -63
-87 -101 -96 -44 -11 -117 4 -187 40 l-68 35 22 -37 c12 -20 29 -50 38 -65 15
-27 19 -28 71 -24 86 8 167 43 221 97 82 83 90 171 20 241 -52 53 -95 61 -256
53 -125 -6 -135 -5 -167 14 -83 51 -73 150 18 188 62 26 107 12 214 -63 25
-18 25 -18 -4 32 -16 28 -34 58 -40 68 -11 18 -24 19 -91 8z"/>
</g>
</svg>
