<svg width="50" height="50" viewBox="0 0 50 50" fill="none" xmlns="http://www.w3.org/2000/svg">
<path d="M25.3794 0.0468821C25.2989 0.110792 25.2942 0.229143 25.3723 0.300154C25.5427 0.458744 25.7794 0.219675 25.6137 0.0563502C25.5427 -0.0146606 25.4622 -0.0193946 25.3794 0.0468821Z" fill="#000000"/>
<path d="M25.3344 1.54049C25.3439 2.40445 25.3581 2.55121 25.4527 2.62459C25.5687 2.71453 25.7912 2.67903 25.9522 2.54174C26.0539 2.45653 26.035 2.43996 25.9238 2.5157C25.8741 2.54884 25.8196 2.56778 25.8007 2.56068C25.7178 2.5299 25.7084 2.45653 25.6942 1.60676C25.6871 1.14519 25.6776 0.764103 25.6752 0.759369C25.6752 0.757002 25.5948 0.754635 25.5001 0.754635H25.3273L25.3344 1.54049Z" fill="#000000"/>
<path d="M26.4965 0.78777C26.39 0.816174 26.2007 0.936893 26.2267 0.960563C26.2338 0.967664 26.2669 0.951095 26.3024 0.922691C26.3379 0.896653 26.39 0.872983 26.4208 0.872983C26.5273 0.872983 26.5344 0.927425 26.5013 1.58546C26.4681 2.23639 26.4752 2.34764 26.5533 2.48729C26.667 2.68849 26.9581 2.78554 27.2137 2.71216C27.3794 2.66245 27.564 2.50386 27.6658 2.32397C27.706 2.25296 27.7415 2.19852 27.7439 2.20325C27.7628 2.22219 27.6824 3.17373 27.6516 3.28261C27.5664 3.59506 27.3581 3.78442 27.1001 3.78442C26.8445 3.78442 26.7025 3.57849 26.7072 3.21634C26.7096 3.11929 26.7214 3.00804 26.7356 2.97017C26.7498 2.9323 26.7593 2.89916 26.7569 2.89442C26.7427 2.88259 26.4445 2.9607 26.4137 2.98674C26.3758 3.01514 26.3735 3.28498 26.4113 3.40807C26.4776 3.6353 26.719 3.79626 27.0267 3.8223C27.5593 3.86727 27.9427 3.6069 28.0398 3.13113C28.0611 3.01751 28.1936 0.85168 28.177 0.837478C28.1723 0.835111 28.0895 0.906121 27.9901 1.0008L27.8102 1.16886L27.7841 1.59019C27.7581 1.99969 27.7557 2.01862 27.6753 2.18195C27.5735 2.39261 27.4764 2.51096 27.3392 2.59144C27.1451 2.70506 26.9699 2.66245 26.8729 2.48019C26.8255 2.39498 26.8255 2.26243 26.8705 1.31088C26.8847 1.02684 26.88 0.967664 26.8468 0.903754C26.7853 0.780669 26.6693 0.742797 26.4965 0.78777Z" fill="#000000"/>
<path d="M23.8219 0.835111C23.5568 0.906122 23.3746 1.12389 23.2799 1.48131L23.2255 1.68961L23.1971 1.50971C23.1521 1.22094 23.0385 1.05524 22.842 0.991335C22.7284 0.953462 22.4397 0.972398 22.3402 1.02447C22.1438 1.12625 21.9899 1.37006 21.9118 1.69434L21.8692 1.8766L21.8432 1.63043C21.829 1.49314 21.8077 1.30852 21.8006 1.21857L21.784 1.05524L21.6183 1.07181C21.526 1.08128 21.4455 1.09312 21.4384 1.09785C21.429 1.10732 21.6231 3.00094 21.6349 3.01987C21.642 3.02934 21.9615 2.982 21.9734 2.97017C21.9805 2.96307 21.9686 2.78554 21.9473 2.57487C21.9024 2.15828 21.9095 1.94525 21.9828 1.6612C22.0775 1.28485 22.2692 1.06235 22.5036 1.05761C22.6195 1.05524 22.7 1.10969 22.7616 1.22567C22.816 1.33219 22.8373 1.46474 22.9036 2.10384C22.932 2.35711 22.9698 2.61038 22.9888 2.66482C23.0361 2.79737 23.1166 2.84708 23.2586 2.83288C23.3793 2.82104 23.5687 2.70743 23.616 2.61748C23.642 2.57251 23.6349 2.57487 23.5687 2.63168C23.5261 2.66719 23.4645 2.69559 23.4338 2.69559C23.3533 2.69559 23.3178 2.60091 23.2846 2.28136C23.2136 1.62806 23.4077 1.05998 23.7438 0.929792C23.8693 0.882451 23.9545 0.899021 24.0468 0.986601C24.1415 1.07655 24.1722 1.21383 24.2409 1.83873C24.274 2.14644 24.3119 2.43995 24.3237 2.48729C24.3545 2.59854 24.4681 2.69559 24.5675 2.69559C24.7095 2.69323 24.9864 2.52043 24.9864 2.43285C24.9864 2.41628 24.9509 2.43522 24.9083 2.47783C24.816 2.56541 24.7403 2.57487 24.7001 2.5015C24.6835 2.47309 24.6432 2.18668 24.6054 1.86477C24.5699 1.54522 24.5273 1.23751 24.5107 1.18306C24.4657 1.02921 24.3213 0.880084 24.1746 0.837478C24.0326 0.794871 23.971 0.794871 23.8219 0.835111Z" fill="#000000"/>
<path d="M29.415 1.0742C29.2493 1.12628 29.067 1.26593 28.9629 1.42215C28.6504 1.89319 28.712 2.57726 29.0907 2.83527C29.3818 3.0341 29.7487 2.98912 29.9783 2.72875L30.0706 2.6246L30.0588 2.77846C30.0469 2.89681 30.054 2.94415 30.0848 2.99386C30.144 3.07907 30.2718 3.12878 30.3925 3.10748C30.4943 3.09091 30.7286 2.98439 30.7073 2.96545C30.7002 2.95835 30.6623 2.97019 30.6221 2.98912C30.4848 3.06014 30.4067 3.02463 30.4067 2.89208C30.4067 2.8471 30.4659 2.45418 30.5392 2.01864C30.6126 1.58311 30.667 1.21859 30.6599 1.21149C30.6528 1.20675 30.5676 1.25883 30.4706 1.33221C30.3759 1.40558 30.2883 1.46476 30.2812 1.46476C30.2718 1.46476 30.2434 1.42215 30.2197 1.37245C30.0824 1.10497 29.7321 0.974786 29.415 1.0742ZM29.9593 1.18072C30.0564 1.23042 30.1653 1.36061 30.2173 1.4908C30.2457 1.55707 30.241 1.61862 30.1818 1.98314C30.1108 2.42341 30.0682 2.55123 29.9333 2.70508C29.7676 2.89444 29.486 2.93942 29.3108 2.80686C29.1475 2.68378 29.0646 2.3808 29.1049 2.05888C29.1499 1.71567 29.2303 1.50737 29.396 1.32747C29.5688 1.14048 29.7724 1.08604 29.9593 1.18072Z" fill="#000000"/>
<path d="M20.5603 1.26353C20.5603 1.27537 20.5083 1.37478 20.4467 1.4813L20.3331 1.6754L20.2171 1.59492C19.8289 1.32508 19.3272 1.51444 19.1378 2.00205C19.0408 2.25532 19.0739 2.66245 19.2159 2.94175C19.294 3.09324 19.4692 3.26367 19.6254 3.33705C19.971 3.50274 20.3662 3.36308 20.5083 3.02697C20.5343 2.96779 20.5603 2.89915 20.5698 2.87311C20.584 2.83524 20.5958 2.85181 20.6313 2.95596C20.655 3.02697 20.7023 3.10981 20.7378 3.13822C20.8586 3.24237 21.0763 3.18556 21.2207 3.0104C21.313 2.89915 21.3177 2.85654 21.2254 2.95359C21.145 3.04117 21.0716 3.04827 21.0242 2.97253C21.0053 2.94412 20.9035 2.56303 20.797 2.1275C20.6242 1.40555 20.5674 1.19726 20.5603 1.26353ZM20.0727 1.56888C20.1177 1.58782 20.1958 1.63989 20.2479 1.68723C20.3402 1.77244 20.3449 1.78191 20.442 2.19141C20.5225 2.52989 20.539 2.63878 20.5296 2.75713C20.4917 3.23053 20.068 3.4483 19.7556 3.15479C19.4408 2.86128 19.3059 2.163 19.4952 1.79611C19.5402 1.7109 19.6372 1.60912 19.7201 1.56415C19.7863 1.52627 19.9781 1.52864 20.0727 1.56888Z" fill="#000000"/>
<path d="M17.3295 1.44346C17.0194 1.47423 16.7614 1.59258 16.5934 1.77958C16.333 2.07072 16.378 2.49915 16.6975 2.71692C16.8324 2.80923 17.0194 2.85894 17.4265 2.90865C17.8857 2.96546 17.9047 2.96782 18.0632 3.03883C18.3473 3.16192 18.4845 3.48857 18.3591 3.73947C18.3047 3.84126 18.1626 3.95724 18.0348 3.99985C17.7697 4.08743 17.3721 3.94067 17.0478 3.64006C16.9484 3.54774 16.8679 3.48147 16.8679 3.4933C16.8679 3.50277 16.92 3.64479 16.9816 3.80812C17.1141 4.14897 17.0881 4.1324 17.462 4.13713C17.8502 4.14187 18.21 4.02115 18.4183 3.81759C18.7899 3.4578 18.7047 2.93469 18.2431 2.71692C18.1177 2.65774 17.8857 2.61514 17.4336 2.5678C16.9863 2.52046 16.8301 2.44945 16.7188 2.23405C16.5555 1.91686 16.823 1.53341 17.2135 1.53104C17.4052 1.52867 17.5615 1.61625 17.8147 1.87189L18.0277 2.08492L17.9331 1.81982C17.8171 1.4979 17.8005 1.46476 17.7484 1.4624C17.7271 1.4624 17.6561 1.45293 17.5899 1.44583C17.5259 1.43636 17.4076 1.43636 17.3295 1.44346Z" fill="#000000"/>
<path d="M32.5677 2.5441C32.5109 2.57724 32.4659 2.60801 32.4659 2.61511C32.4659 2.62932 32.5487 2.78791 32.5795 2.83525C32.5984 2.86128 32.6245 2.85418 32.7239 2.79974C32.7901 2.76187 32.8446 2.72163 32.8446 2.71216C32.8446 2.67192 32.7215 2.48256 32.6955 2.48256C32.6789 2.48256 32.6221 2.51096 32.5677 2.5441Z" fill="#000000"/>
<path d="M34.6222 3.41517C34.6269 3.4199 34.8281 3.51221 35.0695 3.6211C38.5015 5.1644 41.6732 7.5906 44.1016 10.5304C48.8284 16.2468 50.6935 23.7739 49.2236 31.1946C49.1621 31.5141 49.1124 31.7769 49.1148 31.7816C49.1266 31.7911 49.3349 31.0005 49.4343 30.5673C49.8059 28.9696 49.9763 27.4973 49.9976 25.722C50.0189 23.8828 49.8982 22.536 49.5526 20.8223C48.6532 16.332 46.4993 12.2607 43.3064 9.00608C40.9276 6.58225 38.1512 4.75017 35.0506 3.56192C34.6719 3.41753 34.5961 3.3915 34.6222 3.41517Z" fill="#000000"/>
<path d="M12.7613 4.58683L12.7187 4.82117L12.6146 4.78566C12.4821 4.74069 12.2264 4.75252 12.1057 4.8117C11.9093 4.90638 11.7483 5.14072 11.7081 5.38925C11.6371 5.81059 11.9187 6.33843 12.3187 6.53489C12.4584 6.60354 12.4986 6.61301 12.6785 6.61301C12.8608 6.61301 12.8915 6.60591 13.0099 6.53963C13.2253 6.41654 13.3649 6.14197 13.3365 5.90053C13.3247 5.80348 13.3412 5.79875 13.3933 5.88396C13.4975 6.06149 13.6679 6.12303 13.8075 6.03545C13.8927 5.98101 13.9969 5.81769 14.0182 5.69933C14.0324 5.62122 14.0324 5.62122 13.9779 5.72537C13.914 5.84846 13.8572 5.86976 13.7815 5.79875C13.7531 5.77271 13.5282 5.4366 13.2821 5.05077C13.0335 4.66731 12.8253 4.3525 12.8182 4.3525C12.8087 4.3525 12.7827 4.45901 12.7613 4.58683ZM12.643 4.85904C12.7542 4.90875 12.7779 4.93952 12.9957 5.27564C13.2537 5.67566 13.3105 5.82005 13.2821 6.01888C13.2205 6.48755 12.8158 6.5988 12.4371 6.24848C11.9732 5.82005 11.8193 5.17859 12.1152 4.90401C12.2383 4.78803 12.4537 4.76909 12.643 4.85904Z" fill="#000000"/>
<path d="M10.2524 5.24016C10.1364 5.35378 10.2075 5.53604 10.3708 5.53604C10.5341 5.53604 10.6051 5.35378 10.4891 5.24016C10.4583 5.20702 10.4039 5.18099 10.3708 5.18099C10.3376 5.18099 10.2832 5.20702 10.2524 5.24016Z" fill="#000000"/>
<path d="M10.7021 5.82006C10.6382 5.87214 10.5862 5.92658 10.5885 5.93841C10.5933 5.95025 10.901 6.36921 11.2749 6.86629C11.6986 7.43437 11.9803 7.82967 12.0229 7.92672C12.1838 8.27704 12.0655 8.64629 11.7649 8.72914C11.5732 8.78121 11.3033 8.60132 11.1447 8.31017L11.0761 8.18235L10.9672 8.33148C10.8773 8.45693 10.8631 8.49007 10.8844 8.53031C11.0548 8.85222 11.4193 8.97294 11.7459 8.81435C11.9519 8.71494 12.2051 8.4522 12.2738 8.26993C12.3519 8.06164 12.3377 7.78233 12.2359 7.5835C12.153 7.42491 10.8915 5.73958 10.8489 5.73248C10.8323 5.73012 10.7684 5.77036 10.7021 5.82006Z" fill="#000000"/>
<path d="M9.40035 5.90292C9.32934 5.97393 9.3246 6.05441 9.39088 6.13725C9.45242 6.21537 9.57786 6.22247 9.64887 6.15146C9.71988 6.08045 9.71278 5.95499 9.63467 5.89345C9.55183 5.82717 9.47135 5.83191 9.40035 5.90292Z" fill="#000000"/>
<path d="M9.86898 6.47813L9.74353 6.58938L10.2287 7.18113C10.8205 7.90071 10.8607 7.94568 10.9672 7.96462C11.1471 7.99776 11.327 7.81313 11.3436 7.57642C11.3507 7.48648 11.3483 7.47938 11.3341 7.53619C11.2868 7.70661 11.2252 7.75158 11.1282 7.68057C11.1021 7.66164 10.8465 7.35866 10.5601 7.00597C10.2737 6.65565 10.0299 6.36687 10.0157 6.36687C10.0039 6.36687 9.93525 6.41658 9.86898 6.47813Z" fill="#000000"/>
<path d="M8.42042 6.71953L8.29024 6.83315L8.50563 7.06749C8.62398 7.19531 8.77073 7.3468 8.83227 7.40597C8.89381 7.46515 8.96245 7.53853 8.98612 7.57166L9.02872 7.63084L8.87487 7.62374C8.68078 7.6119 8.54114 7.66161 8.39912 7.79416C7.94941 8.20839 8.16006 8.99425 8.8086 9.31853C9.21571 9.52209 9.72459 9.38244 9.92578 9.00845C9.95418 8.95637 9.96839 8.87826 9.96839 8.76464V8.59659L10.0299 8.64393C10.1104 8.70073 10.2524 8.7031 10.3329 8.64393C10.366 8.62026 10.4181 8.55161 10.4465 8.49244C10.5033 8.37645 10.5412 8.17525 10.5009 8.19893C10.4891 8.20603 10.4773 8.2368 10.4773 8.2652C10.4773 8.33621 10.4134 8.42379 10.3613 8.42379C10.2998 8.42379 10.2287 8.35278 9.36246 7.44148C8.93168 6.98464 8.57191 6.61065 8.56244 6.60828C8.55534 6.60592 8.49143 6.65563 8.42042 6.71953ZM9.05476 7.70422C9.12103 7.73025 9.24884 7.84861 9.49027 8.09951C9.67726 8.29834 9.84767 8.49244 9.86898 8.53504C9.91631 8.62736 9.92105 8.82382 9.87844 8.92797C9.83347 9.03448 9.66779 9.17651 9.56601 9.19544C9.30328 9.24278 9.03109 9.12917 8.75179 8.84749C8.49143 8.58948 8.40622 8.41432 8.40622 8.14922C8.40622 7.98353 8.41332 7.94802 8.47013 7.86281C8.58611 7.68528 8.83937 7.61664 9.05476 7.70422Z" fill="#000000"/>
<path d="M7.28433 8.99426C7.28433 9.03923 7.29143 9.14575 7.30089 9.23096L7.31983 9.38955L7.14941 9.39902C6.54111 9.43926 6.29732 10.1423 6.70206 10.6914C6.82514 10.8618 6.9932 10.9991 7.18018 11.0891C7.36243 11.1743 7.6441 11.1956 7.82872 11.134C7.98967 11.0796 8.18139 10.895 8.22399 10.753C8.26186 10.6228 8.25949 10.3932 8.21926 10.2772L8.18612 10.1825L8.30447 10.2606C8.46542 10.3695 8.58139 10.3719 8.69027 10.263C8.77785 10.1754 8.82045 10.0499 8.81809 9.89136L8.81572 9.78484L8.79442 9.88899C8.76838 10.0215 8.72578 10.0689 8.6453 10.0476C8.61216 10.0405 8.31157 9.79668 7.9731 9.50553C7.637 9.21676 7.3435 8.96585 7.3222 8.94692C7.28669 8.91851 7.28196 8.92325 7.28433 8.99426ZM7.30089 9.45583C7.34823 9.46529 7.49735 9.57654 7.71747 9.76354C8.01097 10.0168 8.07014 10.0784 8.13168 10.2038C8.25476 10.4476 8.22636 10.708 8.06541 10.8453C7.94469 10.9447 7.82161 10.9684 7.63936 10.9234C7.42871 10.8713 7.26066 10.7648 7.0429 10.5541C6.7565 10.2724 6.63579 9.9671 6.72337 9.74224C6.80858 9.51737 7.03817 9.40375 7.30089 9.45583Z" fill="#000000"/>
<path d="M4.96712 10.5304L4.87008 10.6725L5.0405 10.7908C5.13517 10.8571 5.37186 11.0204 5.56595 11.153C5.7624 11.2879 5.92099 11.411 5.92099 11.4252C5.92099 11.456 5.22038 12.4951 5.19908 12.4951C5.19198 12.4951 4.94819 12.3318 4.65706 12.1306L4.1245 11.766L4.02272 11.9104L3.91858 12.0572L3.98485 12.1045C4.02036 12.1306 4.52688 12.4785 5.10914 12.8762L6.16715 13.6028L6.26182 13.4585C6.3139 13.3803 6.35177 13.307 6.34467 13.2975C6.33993 13.288 6.08904 13.1129 5.79081 12.9069C5.49258 12.7034 5.25352 12.5258 5.26062 12.5164C5.29612 12.4572 5.96596 11.4867 5.98016 11.4678C5.992 11.4583 6.18372 11.5743 6.41094 11.7305C6.6358 11.8868 6.88669 12.0572 6.96716 12.1116L7.11391 12.211L7.21332 12.0666C7.26539 11.9885 7.3009 11.9128 7.29143 11.9033C7.26066 11.8749 5.12097 10.4097 5.09257 10.3979C5.07837 10.3908 5.02156 10.4523 4.96712 10.5304Z" fill="#000000"/>
<path d="M17.3342 14.5236C17.2088 14.8077 17.1733 15.2953 17.2537 15.5959C17.4573 16.3533 18.1342 16.9877 19.1709 17.3924C19.8834 17.6694 20.6455 17.783 21.8148 17.783C22.7189 17.7854 23.3959 17.7096 24.1935 17.525C24.3876 17.48 24.5509 17.4422 24.5533 17.4422C24.558 17.4422 24.5604 20.5335 24.5604 24.3136C24.5604 28.9364 24.5533 31.249 24.5367 31.3839C24.4657 31.9568 24.3592 32.2053 24.0515 32.513L23.8338 32.7331H25.2397H26.648L26.4871 32.5722C26.2859 32.371 26.1865 32.2053 26.0847 31.9094C25.9237 31.436 25.9332 31.9236 25.9332 24.1503V17.1226L26.1415 17.0682C28.0019 16.5853 29.7771 16.1853 30.5653 16.0717C30.9534 16.0148 31.3582 15.9841 32.1014 15.9509C33.1239 15.906 33.6423 15.9793 34.5204 16.2965C35.0529 16.4882 35.5997 16.7841 35.8601 17.0256C35.9618 17.1179 36.0163 17.1321 36.0636 17.0753C36.1109 17.0185 36.0731 16.9403 35.905 16.7297C35.5216 16.2515 34.8896 15.6622 34.4257 15.3521C33.9073 15.0065 33.2683 14.7532 32.4919 14.5875C32.0541 14.4928 31.4813 14.4834 30.8659 14.5615C29.5286 14.7343 28.7167 14.9876 26.3001 15.9912C24.3498 16.8031 24.0752 16.9025 23.1166 17.1321C22.2716 17.338 21.7083 17.4067 21.0597 17.3877C20.5651 17.3735 20.3142 17.3309 19.9142 17.196C18.8703 16.848 18.1626 16.1095 17.578 14.7556C17.4999 14.5804 17.4289 14.4455 17.4076 14.4408C17.3863 14.436 17.3579 14.4692 17.3342 14.5236Z" fill="#000000"/>
<path d="M2.77299 16.3533C2.83216 16.4717 2.8795 16.5735 2.87476 16.5758C2.87003 16.5782 2.81796 16.5995 2.75642 16.6232C2.58837 16.6847 2.47239 16.7818 2.39428 16.9238C2.33037 17.0398 2.32327 17.0729 2.32327 17.2646C2.32327 17.4516 2.33037 17.4942 2.39191 17.6197C2.52683 17.8943 2.80376 18.1002 3.16353 18.1901C3.45229 18.2635 3.76236 18.1996 3.95881 18.0268C4.231 17.7877 4.25941 17.4043 4.02508 17.0989L3.96354 17.0161L4.06295 17.0516C4.33752 17.1487 4.50557 17.0303 4.49847 16.7439C4.4961 16.6776 4.47716 16.5877 4.45823 16.5427L4.42036 16.4598L4.43456 16.5711C4.44876 16.6942 4.41799 16.7557 4.34462 16.7557C4.32095 16.7557 3.95408 16.6208 3.52566 16.4575C3.09962 16.2918 2.73038 16.1521 2.70671 16.145C2.67121 16.1356 2.68304 16.1758 2.77299 16.3533ZM3.39312 16.7936C3.83573 16.964 3.95881 17.0492 4.06059 17.2481C4.16947 17.4635 4.1458 17.6434 3.99195 17.783C3.79076 17.9653 3.44282 17.9605 3.02388 17.7712C2.51736 17.5416 2.29014 17.1108 2.52919 16.8362C2.63097 16.7226 2.78719 16.6445 2.92684 16.6397C2.95997 16.6374 3.16826 16.7084 3.39312 16.7936Z" fill="#000000"/>
<path d="M1.95638 18.2706C1.94218 18.2967 1.92324 18.37 1.91614 18.4316C1.89247 18.647 2.01555 18.8387 2.31142 19.0399C2.38242 19.0872 2.42029 19.1204 2.39426 19.1133C2.36822 19.1062 2.21911 19.0636 2.06289 19.0162C1.90667 18.9713 1.76703 18.9334 1.75282 18.9334C1.71969 18.9334 1.63685 19.2387 1.66288 19.2648C1.68418 19.2837 3.4073 19.7902 3.46884 19.795C3.49961 19.7973 3.58718 19.5677 3.58955 19.4873C3.58955 19.4731 3.37889 19.3997 3.12327 19.3263C2.5055 19.1464 2.34455 19.0517 2.22621 18.8032C2.1623 18.6683 2.1552 18.5594 2.20727 18.4245C2.22621 18.3724 2.24514 18.3203 2.24751 18.3085C2.25224 18.2896 2.06999 18.2233 2.01082 18.2233C1.99425 18.2233 1.97058 18.2446 1.95638 18.2706Z" fill="#000000"/>
<path d="M15.7792 18.5476C16.0703 18.8411 16.1697 19.0636 16.2573 19.6198C16.3023 19.9133 16.3023 31.1567 16.2573 31.4549C16.1673 32.0443 16.023 32.3402 15.6774 32.6361L15.5638 32.7331H16.9768H18.3899L18.2905 32.655C18.0514 32.4657 17.836 32.094 17.7437 31.7153C17.6609 31.3674 17.6443 31.0502 17.6538 29.9164C17.6609 28.8915 17.6656 28.8275 17.7177 28.5908C17.9118 27.7221 18.3402 27.0617 18.984 26.6452C19.5449 26.283 20.1816 26.0274 21.3769 25.6889C22.4444 25.3859 22.9935 25.1752 23.5853 24.8415L23.8267 24.7066V24.3704V24.0367L23.7036 24.155C23.4574 24.3917 23.0503 24.6663 22.7 24.8296C22.4326 24.9551 21.9426 25.1326 21.4953 25.2628C20.9201 25.4309 20.1035 25.6983 19.8384 25.8025C18.9011 26.1741 18.1934 26.7043 17.765 27.3482L17.6609 27.5067L17.6538 23.7929C17.649 21.2673 17.6538 19.9985 17.6727 19.821C17.7082 19.4612 17.7768 19.1985 17.9023 18.9334C17.9899 18.7535 18.0467 18.673 18.1911 18.5263L18.3733 18.3416H16.9721H15.5732L15.7792 18.5476Z" fill="#000000"/>
<path d="M31.3416 18.5712C30.8588 18.6351 30.2907 18.9263 29.8646 19.3263C29.1972 19.9536 28.9676 20.9383 29.2114 22.1407C29.3747 22.955 29.8646 24.1124 30.7144 25.6912C31.1688 26.5386 31.8221 27.8642 32.1724 28.6548C32.5416 29.488 32.8233 30.4064 32.9558 31.2064C33.015 31.5686 33.015 32.3142 32.9558 32.6692C32.8943 33.0361 32.7878 33.4575 32.6931 33.6989C32.2363 34.8871 31.3037 35.8103 30.0753 36.2955C29.7936 36.4068 29.1356 36.5725 28.7617 36.6293C28.3238 36.6932 27.7013 36.6861 27.2563 36.608C25.6634 36.3287 24.4397 35.6754 23.4645 34.5865C23.1544 34.2386 22.8799 33.8693 22.6692 33.519C21.4313 31.4455 21.6704 28.8063 23.2302 27.36C23.3438 27.2559 23.5403 27.0925 23.6657 26.9978L23.8977 26.8274V26.5363C23.8977 26.3777 23.8882 26.2475 23.8787 26.2475C23.8267 26.2475 23.1663 26.5955 22.9225 26.7517C22.3734 27.1044 22.0325 27.3979 21.7083 27.7979C20.8585 28.8489 20.4088 30.262 20.5106 31.5615C20.6219 32.9722 21.1923 34.2646 22.1461 35.273C23.0621 36.2411 24.4468 36.8731 26.1581 37.1027C26.6338 37.169 27.6871 37.1619 28.1983 37.0932C29.9238 36.8612 31.2517 36.2387 32.2765 35.1807C33.6706 33.7439 34.2718 31.7177 33.9215 29.6418C33.7724 28.7542 33.434 27.7671 32.9487 26.7919C32.6434 26.1812 32.17 25.3954 31.2895 24.0438C30.3806 22.6496 29.9096 21.7075 29.7534 20.9809C29.699 20.7229 29.699 20.2944 29.7534 20.0932C29.8883 19.5867 30.2434 19.2032 30.7309 19.0352C30.9937 18.9452 31.4481 18.9287 31.7298 19.002C32.3901 19.1677 32.9369 19.6908 32.9842 20.195L32.9984 20.3654L33.0718 20.2353C33.1973 20.0175 33.2351 19.8707 33.2351 19.6198C33.2328 19.4234 33.2257 19.3808 33.1712 19.2766C33.0032 18.9571 32.544 18.6778 32.0517 18.5902C31.8623 18.557 31.5168 18.5476 31.3416 18.5712Z" fill="#000000"/>
<path d="M0.723224 19.9962C0.600145 20.0956 0.682987 20.3063 0.846304 20.3063C0.94098 20.3063 1.00962 20.2305 1.00962 20.1287C1.00962 19.9725 0.846304 19.8968 0.723224 19.9962Z" fill="#000000"/>
<path d="M1.41436 20.1808C1.40253 20.2305 1.38359 20.3086 1.37649 20.3536L1.36229 20.4365L2.17414 20.6211C2.62149 20.7229 3.01676 20.8033 3.05227 20.8033C3.22742 20.8033 3.31973 20.6755 3.30079 20.4649C3.29132 20.3418 3.22268 20.1642 3.18718 20.1642C3.17534 20.1642 3.18245 20.195 3.20138 20.2353C3.22268 20.2731 3.23452 20.3347 3.22978 20.3702C3.22268 20.427 3.21085 20.4365 3.13511 20.4436C3.08304 20.4483 2.71143 20.3749 2.26645 20.2731C1.83567 20.1737 1.4759 20.0932 1.4617 20.0932C1.4475 20.0932 1.4262 20.1335 1.41436 20.1808Z" fill="#000000"/>
<path d="M2.90314 21.2365C2.90314 21.2389 2.92444 21.2838 2.94811 21.3335C3.01675 21.4661 2.97888 21.5371 2.83924 21.5371C2.79663 21.5371 2.41319 21.4827 1.98715 21.4188C1.55874 21.3525 1.1966 21.3028 1.18003 21.3051C1.15873 21.3099 1.20133 21.3809 1.29364 21.5016L1.43802 21.6886L1.35518 21.7312C1.14689 21.8377 1.02855 22.0294 1.01435 22.2827C0.988309 22.768 1.40252 23.1514 1.99188 23.1869C2.24277 23.2035 2.42266 23.1609 2.60018 23.0473C2.99072 22.7987 3.04042 22.3017 2.70432 21.9797L2.59544 21.8756L2.73036 21.8874C2.89131 21.9016 3.00255 21.8519 3.04752 21.7454C3.08776 21.6484 3.05936 21.459 2.98598 21.3335C2.93391 21.246 2.90314 21.2081 2.90314 21.2365ZM2.4913 21.8993C2.63568 21.9726 2.7919 22.1383 2.83213 22.259C2.97888 22.7064 2.44396 22.9786 1.76229 22.8035C1.48063 22.7301 1.24157 22.5668 1.14926 22.3869C1.09719 22.2804 1.09009 22.1052 1.13742 22.0152C1.18713 21.9206 1.31494 21.8069 1.42856 21.7549C1.52797 21.7123 1.53033 21.7123 1.95164 21.7762C2.26408 21.8235 2.40372 21.8543 2.4913 21.8993Z" fill="#000000"/>
<path d="M0.150436 22.839C0.129134 22.8958 -0.0152476 24.9693 0.00132081 24.9859C0.0320907 25.0166 0.0391914 24.9669 0.0652275 24.5645C0.0817959 24.3373 0.100731 24.1456 0.107832 24.1361C0.114933 24.1266 0.697193 24.1621 1.40017 24.2118C2.10314 24.2639 2.69487 24.3065 2.71617 24.3065C2.74694 24.3065 2.75877 24.271 2.77061 24.1385C2.78008 24.0462 2.78481 23.9657 2.78008 23.9609C2.77534 23.9562 2.18125 23.9112 1.45934 23.8568C0.739798 23.8047 0.145703 23.7574 0.138602 23.7526C0.133868 23.7455 0.140969 23.5443 0.157537 23.3053C0.18594 22.8958 0.183573 22.749 0.150436 22.839Z" fill="#000000"/>
<path d="M26.6906 26.2428V26.4582L26.8279 26.4842C27.1995 26.56 27.4883 26.6475 27.6966 26.7493C27.9759 26.889 28.3664 27.2251 28.5936 27.5257C28.712 27.6796 28.8682 27.9352 28.8682 27.9731C28.8682 28.037 28.9108 27.9896 28.9226 27.9115C28.9368 27.8358 28.9226 27.7955 28.8398 27.6512C28.3996 26.8795 27.5427 26.2191 26.7664 26.0487L26.6906 26.0297V26.2428Z" fill="#000000"/>
<path d="M1.67237 26.8037L1.56822 26.9103L1.67473 27.0168L1.78124 27.1233L1.88539 27.0168L1.98953 26.9103L1.88302 26.8037L1.77651 26.6972L1.67237 26.8037Z" fill="#000000"/>
<path d="M2.10078 29.8217C2.09841 29.9235 2.20965 30.591 2.32327 31.1472C3.12802 35.0931 4.95291 38.7738 7.62988 41.858C8.27132 42.5965 9.18258 43.5078 9.92106 44.1493C12.7661 46.6181 16.1224 48.3744 19.7437 49.2858C21.1757 49.6479 22.5059 49.8586 24.0515 49.9698C24.6196 50.0101 26.4989 50.0101 27.0457 49.9698C29.5925 49.7805 31.8197 49.2834 34.0825 48.4028C34.3121 48.3129 34.2174 48.3271 33.9192 48.4289C32.0896 49.0467 30.073 49.4514 27.9593 49.6242C27.3463 49.6739 25.6184 49.6952 24.951 49.6597C21.4811 49.4775 18.1745 48.6017 15.1093 47.0536C10.5081 44.7292 6.77306 41.0248 4.42745 36.4612C3.38601 34.4327 2.70907 32.5319 2.19545 30.1862C2.14338 29.9519 2.10078 29.7886 2.10078 29.8217Z" fill="#000000"/>
<path d="M47.7136 34.5084C47.6189 34.5297 47.5029 34.6339 47.4579 34.738C47.4082 34.854 47.4153 35.0434 47.4769 35.1688C47.5053 35.228 47.581 35.3298 47.6449 35.3937C47.7088 35.4576 47.7467 35.5026 47.7278 35.4978C47.7112 35.4907 47.4745 35.3913 47.2023 35.2801C46.9301 35.1688 46.7053 35.0789 46.7029 35.0812C46.6863 35.1049 46.6153 35.3156 46.6224 35.3227C46.6366 35.3369 48.4236 36.0706 48.4402 36.0706C48.4615 36.0706 48.5396 35.8552 48.5254 35.8339C48.5183 35.8245 48.4023 35.77 48.2651 35.7156C47.7254 35.4978 47.3846 35.138 47.4721 34.8729C47.536 34.6812 47.6615 34.6788 48.0875 34.854C48.6225 35.0765 48.71 35.1025 48.7929 35.0741C48.8355 35.0599 48.8757 35.0221 48.8923 34.9794C48.9278 34.899 48.9112 34.6836 48.871 34.6433C48.8473 34.622 48.8473 34.6291 48.8686 34.6836C48.9018 34.7735 48.8781 34.8398 48.8118 34.8398C48.781 34.8398 48.5775 34.7664 48.3574 34.6765C47.9361 34.506 47.8414 34.4824 47.7136 34.5084Z" fill="#000000"/>
<path d="M46.4425 35.9333C46.497 36.1014 46.4993 36.1061 46.6177 36.1582C46.684 36.189 46.7384 36.2174 46.7384 36.2245C46.7384 36.2316 46.7218 36.2695 46.7029 36.3073C46.6816 36.3476 46.6769 36.3783 46.6887 36.3783C46.7029 36.3783 46.7289 36.3476 46.7502 36.3097L46.7857 36.2387L47.3467 36.5109C47.9905 36.821 48.0686 36.8376 48.1467 36.6837C48.1869 36.6103 48.1917 36.4636 48.1562 36.3902C48.1396 36.3523 48.1372 36.3594 48.1467 36.4162C48.1633 36.5038 48.1136 36.5559 48.0355 36.5369C48.0047 36.5275 47.7372 36.4044 47.4414 36.2624L46.9041 35.9996L46.9419 35.9049C46.9632 35.8505 46.9751 35.8008 46.9656 35.7937C46.9585 35.7866 46.9348 35.8197 46.9135 35.8718C46.8922 35.9215 46.8733 35.9665 46.8686 35.9712C46.8662 35.9736 46.7597 35.9286 46.6342 35.8694C46.5064 35.8103 46.3999 35.7629 46.3952 35.7629C46.3928 35.7629 46.4118 35.841 46.4425 35.9333Z" fill="#000000"/>
<path d="M46.6248 36.9038C46.5064 36.9441 46.3455 37.1003 46.2745 37.2447C46.0709 37.6589 46.3455 38.13 46.8402 38.2223C47.1621 38.2814 47.4272 38.1442 47.5645 37.8459C47.7704 37.3938 47.4201 36.8991 46.8804 36.8825C46.7834 36.8802 46.6674 36.8896 46.6248 36.9038ZM47.0343 37.1666C47.2568 37.2731 47.4769 37.4814 47.5195 37.6258C47.6047 37.9098 47.368 38.111 47.0343 38.0353C46.7573 37.9737 46.4331 37.7536 46.336 37.5595C46.2792 37.4506 46.2745 37.2849 46.3266 37.2092C46.407 37.0979 46.4993 37.0601 46.684 37.0719C46.8165 37.079 46.8922 37.1003 47.0343 37.1666Z" fill="#000000"/>
<path d="M45.1786 37.9808C45.1147 38.0826 45.1123 38.0945 45.1478 38.1205C45.3514 38.2578 46.6437 39.0484 46.6887 39.0602C46.755 39.0768 46.8544 39.0436 46.8946 38.9868C46.9419 38.9253 46.9609 38.7572 46.9301 38.6815L46.9041 38.6152L46.9159 38.6815C46.9348 38.7762 46.8899 38.8472 46.8212 38.8306C46.7763 38.8188 46.31 38.5347 45.4319 37.9856L45.2472 37.8696L45.1786 37.9808Z" fill="#000000"/>
<path d="M45.4106 38.8164C45.2946 38.8779 45.136 39.0578 45.0674 39.2022C44.8969 39.5786 45.0271 39.9573 45.3893 40.1372C45.5691 40.2271 45.6851 40.2461 45.8484 40.2129C46.2129 40.1372 46.4709 39.7348 46.3573 39.4105C46.3431 39.3703 46.3218 39.3371 46.3076 39.3371C46.2958 39.3371 46.2934 39.349 46.3029 39.3632C46.3834 39.4934 46.3408 39.7443 46.2153 39.8745C46.0993 39.9928 46.0189 40.0283 45.8579 40.0283C45.6804 40.0283 45.4626 39.9265 45.3112 39.775C45.162 39.6283 45.1171 39.5241 45.1171 39.3324C45.1171 39.143 45.1597 39.0697 45.3206 38.9868C45.4106 38.9395 45.4508 38.9324 45.6094 38.9418L45.7916 38.9513L45.6567 38.859C45.581 38.8093 45.5147 38.7691 45.5076 38.7691C45.5005 38.7714 45.4579 38.7904 45.4106 38.8164Z" fill="#000000"/>
<path d="M43.7206 41.0982L43.7395 41.2852L43.6709 41.271C43.5715 41.252 43.3821 41.3112 43.304 41.387C42.975 41.6994 43.1454 42.2793 43.6283 42.5018C43.7395 42.5515 43.7869 42.561 43.9312 42.5515C44.1395 42.5421 44.2721 42.4663 44.3478 42.3196C44.3999 42.2178 44.4117 42.0119 44.3715 41.9077C44.3431 41.832 44.3431 41.832 44.4425 41.9053C44.5253 41.9669 44.6271 41.9811 44.7005 41.9408C44.7573 41.9124 44.8212 41.7491 44.8188 41.6497L44.8141 41.574L44.8046 41.645C44.7928 41.7278 44.7573 41.7752 44.7123 41.7752C44.6934 41.7752 44.478 41.5976 44.2342 41.3799C43.9904 41.1645 43.7727 40.968 43.7466 40.9491C43.704 40.9136 43.704 40.9183 43.7206 41.0982ZM44.0093 41.5266C44.1963 41.6899 44.2792 41.7823 44.317 41.8627C44.4212 42.0852 44.3667 42.3077 44.1892 42.3835C44.0212 42.4521 43.7916 42.3693 43.562 42.1586C43.4081 42.0142 43.3253 41.8864 43.2827 41.7325C43.2496 41.6047 43.2685 41.5124 43.349 41.4177C43.4247 41.3254 43.4768 41.3041 43.6306 41.3041C43.7537 41.3017 43.7561 41.3017 44.0093 41.5266Z" fill="#000000"/>
<path d="M42.4661 42.2959L42.3738 42.3906L42.7028 42.7244C43.1573 43.1812 43.2874 43.2901 43.3892 43.2901C43.4484 43.2901 43.4839 43.2711 43.5289 43.2191C43.5857 43.1504 43.6377 42.9492 43.6046 42.9184C43.5975 42.909 43.5904 42.935 43.5904 42.9729C43.5904 43.051 43.5549 43.1007 43.4981 43.1007C43.4792 43.1007 43.259 42.8971 43.0105 42.651L42.5584 42.2012L42.4661 42.2959Z" fill="#000000"/>
<path d="M42.0921 42.6817C42.0448 42.7291 42.0046 42.8025 41.9951 42.8522C41.9785 42.9397 42.0235 43.1362 42.0921 43.2782C42.1134 43.3232 42.0614 43.2806 41.9454 43.1551L41.7631 42.961L41.6708 43.0344C41.6211 43.0747 41.5785 43.1173 41.5785 43.1267C41.5785 43.1433 42.0069 43.6143 42.3904 44.0191L42.5324 44.1706L42.6223 44.0783L42.7123 43.9883L42.4614 43.7161C42.1963 43.4297 42.0992 43.2688 42.0992 43.1196C42.0992 42.9965 42.1347 42.9161 42.2342 42.8238L42.3194 42.7409L42.246 42.6675L42.1726 42.5942L42.0921 42.6817Z" fill="#000000"/>
<path d="M41.1998 43.5173C41.1998 43.5576 41.1927 43.638 41.1856 43.6972L41.1714 43.8014L41.0341 43.7919C40.9584 43.7872 40.859 43.7943 40.8116 43.8108C40.7004 43.8463 40.5513 44.0191 40.5134 44.154C40.3903 44.5896 40.7809 45.1127 41.2282 45.1127C41.5406 45.1127 41.7537 44.8736 41.7111 44.5706L41.6969 44.4689L41.7915 44.5541C41.8436 44.6014 41.9099 44.6393 41.9406 44.6393C42.0117 44.6393 42.0921 44.5801 42.1347 44.4973C42.1773 44.4144 42.1797 44.3836 42.1418 44.4215C42.0756 44.4878 42.0211 44.4405 41.6471 43.9812C41.1596 43.3871 41.1998 43.4297 41.1998 43.5173ZM41.1572 43.8416C41.1927 43.8582 41.311 43.9812 41.4247 44.1185C41.6471 44.3907 41.7134 44.5399 41.6826 44.6985C41.6613 44.8215 41.5785 44.9281 41.4767 44.9683C41.3963 44.9991 41.3726 44.9967 41.2519 44.9588C40.9891 44.8784 40.6838 44.4854 40.6601 44.2037C40.6412 43.9647 40.769 43.8108 40.9868 43.8108C41.0459 43.8132 41.1217 43.825 41.1572 43.8416Z" fill="#000000"/>
<path d="M38.6317 44.689C38.5797 44.7292 38.5394 44.7695 38.5418 44.7813C38.5465 44.8002 39.4909 46.1589 39.6069 46.3151L39.6637 46.3909L39.7678 46.3175L39.8696 46.2441L39.7347 46.05C39.4909 45.7115 39.3726 45.4204 39.3702 45.1742C39.3678 44.947 39.4672 44.805 39.6282 44.805C39.7418 44.805 39.8223 44.8878 40.1158 45.3068C40.3903 45.6973 40.4614 45.766 40.575 45.7376C40.6412 45.721 40.7738 45.5553 40.7714 45.4938C40.7714 45.4701 40.7643 45.4748 40.7501 45.508C40.7359 45.5435 40.7075 45.5624 40.6673 45.5624C40.6199 45.5624 40.5844 45.5269 40.485 45.3825C40.4164 45.2831 40.2909 45.1056 40.2057 44.9872C39.9809 44.6724 39.827 44.6014 39.5998 44.7126C39.3655 44.8239 39.2779 45.0914 39.3655 45.4204C39.3844 45.4914 39.3962 45.5506 39.3939 45.5529C39.3915 45.5553 39.24 45.3446 39.0601 45.0866C38.8803 44.8286 38.7311 44.6156 38.7288 44.6156C38.7264 44.6156 38.6838 44.6487 38.6317 44.689Z" fill="#000000"/>
<path d="M38.2293 45.5837C38.0329 45.6169 37.8151 45.766 37.7536 45.9104C37.6802 46.0832 37.7489 46.2844 37.9098 46.3672C37.995 46.4098 38.0447 46.4169 38.3666 46.4122C38.6625 46.4074 38.7406 46.4145 38.8045 46.4477C38.9015 46.4974 38.9844 46.6536 38.9631 46.7459C38.9465 46.824 38.814 46.9519 38.724 46.9732C38.6199 46.9992 38.4471 46.9637 38.2814 46.8785L38.1205 46.7956L38.1725 46.8832C38.2009 46.9306 38.2412 47.0016 38.2625 47.0371C38.298 47.101 38.3075 47.1033 38.4305 47.0939C38.6341 47.0749 38.8258 46.9921 38.9536 46.8643C39.1477 46.6678 39.1666 46.4595 39.001 46.2938C38.8779 46.1684 38.7761 46.1494 38.395 46.1684C38.0992 46.1826 38.0755 46.1802 37.9998 46.1352C37.8033 46.0145 37.827 45.7802 38.0424 45.6902C38.1891 45.6287 38.2956 45.6618 38.5489 45.8394C38.6081 45.882 38.6081 45.882 38.5394 45.7636C38.5015 45.6973 38.4589 45.6263 38.4447 45.6027C38.4187 45.56 38.3879 45.5577 38.2293 45.5837Z" fill="#000000"/>
</svg>
