<svg width="70" height="70" viewBox="0 0 70 70" fill="none" xmlns="http://www.w3.org/2000/svg">
<path d="M35.5311 0.065641C35.4185 0.155115 35.4118 0.320806 35.5212 0.420221C35.7598 0.642248 36.0911 0.307551 35.8592 0.0788964C35.7598 -0.0205187 35.6471 -0.0271464 35.5311 0.065641Z" fill="black"/>
<path d="M35.4682 2.15668C35.4814 3.36623 35.5013 3.57169 35.6338 3.67442C35.7962 3.80034 36.1077 3.75064 36.333 3.55843C36.4755 3.43914 36.449 3.41594 36.2933 3.52198C36.2237 3.56838 36.1475 3.59489 36.121 3.58495C36.005 3.54187 35.9917 3.43914 35.9718 2.24947C35.9619 1.60327 35.9486 1.06974 35.9453 1.06312C35.9453 1.0598 35.8327 1.05649 35.7001 1.05649H35.4582L35.4682 2.15668Z" fill="black"/>
<path d="M37.0952 1.10287C36.946 1.14264 36.6809 1.31164 36.7174 1.34478C36.7273 1.35472 36.7737 1.33153 36.8234 1.29176C36.8731 1.25531 36.946 1.22217 36.9891 1.22217C37.1382 1.22217 37.1482 1.29839 37.1018 2.21963C37.0554 3.13094 37.0653 3.28669 37.1747 3.48221C37.3337 3.76388 37.7413 3.89975 38.0992 3.79702C38.3312 3.72743 38.5896 3.5054 38.7321 3.25355C38.7884 3.15414 38.8381 3.07792 38.8415 3.08455C38.868 3.11106 38.7553 4.44322 38.7122 4.59565C38.5929 5.03308 38.3013 5.29819 37.9401 5.29819C37.5823 5.29819 37.3834 5.00988 37.3901 4.50287C37.3934 4.367 37.41 4.21125 37.4298 4.15823C37.4497 4.10521 37.463 4.05881 37.4597 4.05219C37.4398 4.03562 37.0223 4.14497 36.9792 4.18143C36.9262 4.22119 36.9228 4.59897 36.9759 4.77129C37.0686 5.08942 37.4066 5.31476 37.8374 5.35121C38.583 5.41417 39.1198 5.04965 39.2557 4.38357C39.2855 4.22451 39.4711 1.19235 39.4479 1.17246C39.4412 1.16915 39.3253 1.26856 39.1861 1.40112L38.9342 1.6364L38.8978 2.22626C38.8613 2.79956 38.858 2.82607 38.7454 3.05472C38.6029 3.34965 38.467 3.51534 38.2748 3.62801C38.0031 3.78708 37.7579 3.72743 37.622 3.47226C37.5558 3.35297 37.5558 3.16739 37.6187 1.83523C37.6386 1.43757 37.632 1.35472 37.5856 1.26525C37.4994 1.09293 37.3371 1.03991 37.0952 1.10287Z" fill="black"/>
<path d="M33.3507 1.16914C32.9796 1.26856 32.7244 1.57343 32.5919 2.07382L32.5156 2.36544L32.4759 2.11359C32.4129 1.7093 32.2539 1.47733 31.9788 1.38786C31.8198 1.33483 31.4155 1.36135 31.2763 1.43425C31.0013 1.57674 30.7859 1.91807 30.6766 2.37207L30.6169 2.62723L30.5805 2.28259C30.5606 2.09039 30.5308 1.83191 30.5208 1.70598L30.4976 1.47733L30.2657 1.50053C30.1364 1.51378 30.0238 1.53035 30.0138 1.53698C30.0006 1.55023 30.2723 4.2013 30.2889 4.22781C30.2988 4.24107 30.7461 4.17479 30.7627 4.15822C30.7727 4.14828 30.7561 3.89974 30.7263 3.60481C30.6633 3.02158 30.6732 2.72333 30.776 2.32567C30.9085 1.79877 31.1769 1.48727 31.505 1.48064C31.6673 1.47733 31.78 1.55355 31.8662 1.71593C31.9424 1.86505 31.9722 2.05062 32.065 2.94536C32.1048 3.29994 32.1578 3.65452 32.1843 3.73074C32.2506 3.91631 32.3632 3.9859 32.562 3.96602C32.731 3.94945 32.9961 3.79039 33.0624 3.66446C33.0989 3.6015 33.0889 3.60481 32.9961 3.68434C32.9365 3.73405 32.8503 3.77382 32.8073 3.77382C32.6946 3.77382 32.6449 3.64126 32.5985 3.1939C32.4991 2.27928 32.7708 1.48396 33.2413 1.3017C33.417 1.23542 33.5363 1.25862 33.6655 1.38123C33.798 1.50715 33.8411 1.69936 33.9372 2.57421C33.9836 3.00501 34.0366 3.41592 34.0532 3.4822C34.0963 3.63795 34.2553 3.77382 34.3945 3.77382C34.5933 3.7705 34.981 3.52859 34.981 3.40598C34.981 3.38278 34.9313 3.4093 34.8717 3.46894C34.7424 3.59156 34.6364 3.60481 34.5801 3.50208C34.5569 3.46232 34.5005 3.06134 34.4475 2.61066C34.3978 2.16329 34.3382 1.7325 34.315 1.65628C34.252 1.44088 34.0499 1.23211 33.8444 1.17246C33.6456 1.11281 33.5595 1.11281 33.3507 1.16914Z" fill="black"/>
<path d="M41.1809 1.50389C40.949 1.57679 40.6938 1.77231 40.548 1.99102C40.1106 2.65047 40.1968 3.60817 40.727 3.96938C41.1345 4.24774 41.6482 4.18478 41.9696 3.82026L42.0988 3.67445L42.0822 3.88985C42.0657 4.05554 42.0756 4.12182 42.1187 4.19141C42.2015 4.31071 42.3805 4.3803 42.5495 4.35047C42.692 4.32728 43.02 4.17815 42.9902 4.15164C42.9803 4.1417 42.9272 4.15827 42.8709 4.18478C42.6787 4.2842 42.5694 4.23449 42.5694 4.04891C42.5694 3.98595 42.6522 3.43585 42.7549 2.82611C42.8576 2.21636 42.9339 1.70603 42.9239 1.69609C42.914 1.68946 42.7947 1.76237 42.6588 1.8651C42.5263 1.96782 42.4037 2.05067 42.3937 2.05067C42.3805 2.05067 42.3407 1.99102 42.3076 1.92143C42.1154 1.54697 41.625 1.36471 41.1809 1.50389ZM41.9431 1.65301C42.0789 1.7226 42.2314 1.90486 42.3043 2.08712C42.344 2.17991 42.3374 2.26607 42.2546 2.7764C42.1551 3.39277 42.0955 3.57172 41.9066 3.78712C41.6747 4.05223 41.2803 4.11519 41.0351 3.92962C40.8065 3.7573 40.6905 3.33313 40.7468 2.88244C40.8098 2.40194 40.9225 2.11032 41.1544 1.85847C41.3963 1.59668 41.6813 1.52046 41.9431 1.65301Z" fill="black"/>
<path d="M28.7845 1.76895C28.7845 1.78552 28.7116 1.9247 28.6254 2.07382L28.4663 2.34555L28.304 2.23288C27.7605 1.85511 27.058 2.12021 26.7929 2.80286C26.6571 3.15744 26.7035 3.72742 26.9023 4.11846C27.0116 4.33054 27.2569 4.56914 27.4756 4.67187C27.9594 4.90383 28.5127 4.70832 28.7116 4.23775C28.748 4.15491 28.7845 4.05881 28.7977 4.02235C28.8176 3.96933 28.8342 3.99253 28.8839 4.13834C28.917 4.23775 28.9833 4.35374 29.033 4.3935C29.202 4.53931 29.5068 4.45978 29.709 4.21456C29.8382 4.05881 29.8448 3.99916 29.7156 4.13503C29.6029 4.25764 29.5002 4.26758 29.4339 4.16154C29.4074 4.12177 29.2649 3.58824 29.1158 2.9785C28.8739 1.96778 28.7944 1.67616 28.7845 1.76895ZM28.1018 2.19643C28.1648 2.22294 28.2742 2.29585 28.3471 2.36212C28.4763 2.48142 28.4829 2.49468 28.6188 3.06797C28.7314 3.54185 28.7546 3.69428 28.7414 3.85998C28.6884 4.52274 28.0952 4.82762 27.6578 4.4167C27.2171 4.00579 27.0282 3.0282 27.2933 2.51456C27.3563 2.39526 27.4921 2.25277 27.6081 2.1898C27.7009 2.13678 27.9693 2.1401 28.1018 2.19643Z" fill="black"/>
<path d="M24.2613 2.02084C23.8272 2.06392 23.466 2.22962 23.2307 2.49141C22.8662 2.89901 22.9292 3.49881 23.3765 3.80369C23.5654 3.93293 23.8272 4.00252 24.3972 4.07211C25.04 4.15164 25.0665 4.15495 25.2885 4.25437C25.6862 4.42669 25.8784 4.884 25.7027 5.23526C25.6265 5.37776 25.4277 5.54014 25.2488 5.59978C24.8776 5.7224 24.3209 5.51694 23.867 5.09608C23.7278 4.96684 23.6151 4.87406 23.6151 4.89062C23.6151 4.90388 23.688 5.10271 23.7742 5.33136C23.9597 5.80856 23.9233 5.78536 24.4469 5.79199C24.9903 5.79861 25.494 5.62961 25.7856 5.34462C26.3058 4.84092 26.1865 4.10856 25.5404 3.80369C25.3647 3.72084 25.04 3.66119 24.4071 3.59492C23.7808 3.52864 23.5621 3.42922 23.4064 3.12766C23.1777 2.68361 23.5522 2.14677 24.0989 2.14346C24.3673 2.14014 24.586 2.26275 24.9406 2.62065L25.2388 2.91889L25.1063 2.54774C24.9439 2.09706 24.9207 2.05067 24.8478 2.04735C24.818 2.04735 24.7186 2.0341 24.6258 2.02416C24.5363 2.0109 24.3706 2.0109 24.2613 2.02084Z" fill="black"/>
<path d="M45.5947 3.56174C45.5152 3.60813 45.4522 3.65121 45.4522 3.66115C45.4522 3.68104 45.5682 3.90306 45.6113 3.96934C45.6378 4.00579 45.6743 3.99585 45.8134 3.91963C45.9062 3.86661 45.9824 3.81028 45.9824 3.79702C45.9824 3.74069 45.8101 3.47558 45.7737 3.47558C45.7505 3.47558 45.6709 3.51534 45.5947 3.56174Z" fill="black"/>
<path d="M48.471 4.78124C48.4777 4.78786 48.7593 4.9171 49.0973 5.06954C53.9022 7.23016 58.3425 10.6268 61.7423 14.7426C68.3597 22.7455 70.9709 33.2835 68.9131 43.6724C68.827 44.1198 68.7574 44.4876 68.7607 44.4942C68.7773 44.5075 69.0689 43.4007 69.208 42.7942C69.7283 40.5574 69.9669 38.4962 69.9967 36.0108C70.0265 33.436 69.8575 31.5504 69.3737 29.1512C68.1145 22.8648 65.0991 17.165 60.6289 12.6085C57.2987 9.21515 53.4117 6.65024 49.0708 4.98669C48.5406 4.78455 48.4346 4.7481 48.471 4.78124Z" fill="black"/>
<path d="M17.8659 6.42157L17.8062 6.74964L17.6604 6.69993C17.4749 6.63697 17.117 6.65353 16.948 6.73638C16.673 6.86893 16.4476 7.197 16.3913 7.54496C16.2919 8.13482 16.6862 8.8738 17.2462 9.14885C17.4417 9.24495 17.4981 9.25821 17.7499 9.25821C18.0051 9.25821 18.0481 9.24827 18.2138 9.15548C18.5154 8.98316 18.7109 8.59876 18.6711 8.26074C18.6545 8.12488 18.6777 8.11825 18.7506 8.23755C18.8964 8.48609 19.135 8.57225 19.3305 8.44963C19.4498 8.37342 19.5956 8.14476 19.6254 7.97907C19.6453 7.86971 19.6453 7.86971 19.5691 8.01552C19.4796 8.18784 19.4001 8.21766 19.2941 8.11825C19.2543 8.0818 18.9395 7.61123 18.5949 7.07108C18.247 6.53424 17.9554 6.0935 17.9454 6.0935C17.9322 6.0935 17.8957 6.24262 17.8659 6.42157ZM17.7002 6.80266C17.8559 6.87225 17.8891 6.91533 18.1939 7.38589C18.5551 7.94593 18.6347 8.14807 18.5949 8.42644C18.5087 9.08258 17.9421 9.23833 17.4119 8.74788C16.7624 8.14807 16.547 7.25003 16.9612 6.86562C17.1336 6.70324 17.4351 6.67673 17.7002 6.80266Z" fill="black"/>
<path d="M14.3534 7.33623C14.191 7.49529 14.2904 7.75046 14.5191 7.75046C14.7477 7.75046 14.8471 7.49529 14.6848 7.33623C14.6417 7.28983 14.5655 7.25338 14.5191 7.25338C14.4727 7.25338 14.3965 7.28983 14.3534 7.33623Z" fill="black"/>
<path d="M14.983 8.1481C14.8935 8.22101 14.8206 8.29722 14.8239 8.31379C14.8306 8.33036 15.2613 8.91691 15.7849 9.61282C16.378 10.4081 16.7724 10.9615 16.832 11.0974C17.0574 11.5879 16.8917 12.1048 16.4708 12.2208C16.2024 12.2937 15.8247 12.0419 15.6026 11.6343L15.5065 11.4553L15.3541 11.6641C15.2282 11.8397 15.2083 11.8861 15.2381 11.9424C15.4767 12.3931 15.987 12.5621 16.4443 12.3401C16.7326 12.2009 17.0872 11.8331 17.1833 11.5779C17.2926 11.2863 17.2727 10.8953 17.1303 10.6169C17.0143 10.3949 15.2481 8.03543 15.1884 8.02549C15.1652 8.02218 15.0758 8.07851 14.983 8.1481Z" fill="black"/>
<path d="M13.1605 8.26409C13.0611 8.3635 13.0544 8.47617 13.1472 8.59216C13.2334 8.70151 13.409 8.71145 13.5084 8.61204C13.6078 8.51262 13.5979 8.33699 13.4885 8.25083C13.3726 8.15804 13.2599 8.16467 13.1605 8.26409Z" fill="black"/>
<path d="M13.8166 9.06936L13.6409 9.22511L14.3202 10.0536C15.1487 11.061 15.205 11.1239 15.3541 11.1505C15.606 11.1968 15.8578 10.9384 15.881 10.607C15.8909 10.4811 15.8876 10.4711 15.8677 10.5506C15.8015 10.7892 15.7153 10.8522 15.5794 10.7528C15.543 10.7263 15.1851 10.3021 14.7842 9.80835C14.3832 9.3179 14.0419 8.91361 14.022 8.91361C14.0055 8.91361 13.9094 8.9832 13.8166 9.06936Z" fill="black"/>
<path d="M11.7886 9.40735L11.6063 9.56642L11.9079 9.89449C12.0736 10.0734 12.279 10.2855 12.3652 10.3684C12.4513 10.4512 12.5474 10.5539 12.5806 10.6003L12.6402 10.6832L12.4248 10.6732C12.1531 10.6567 11.9576 10.7263 11.7588 10.9118C11.1292 11.4918 11.4241 12.5919 12.332 13.0459C12.902 13.3309 13.6144 13.1354 13.8961 12.6118C13.9359 12.5389 13.9557 12.4296 13.9557 12.2705V12.0352L14.0419 12.1015C14.1546 12.181 14.3534 12.1843 14.466 12.1015C14.5124 12.0684 14.5853 11.9723 14.6251 11.8894C14.7046 11.727 14.7577 11.4454 14.7013 11.4785C14.6847 11.4884 14.6682 11.5315 14.6682 11.5713C14.6682 11.6707 14.5787 11.7933 14.5058 11.7933C14.4197 11.7933 14.3202 11.6939 13.1074 10.4181C12.5043 9.7785 12.0007 9.25492 11.9874 9.2516C11.9775 9.24829 11.888 9.31788 11.7886 9.40735ZM12.6767 10.7859C12.7694 10.8224 12.9484 10.9881 13.2864 11.3393C13.5482 11.6177 13.7867 11.8894 13.8166 11.9491C13.8828 12.0783 13.8895 12.3534 13.8298 12.4992C13.7669 12.6483 13.5349 12.8471 13.3924 12.8736C13.0246 12.9399 12.6435 12.7808 12.2525 12.3865C11.888 12.0253 11.7687 11.7801 11.7687 11.4089C11.7687 11.1769 11.7787 11.1272 11.8582 11.0079C12.0206 10.7594 12.3751 10.6633 12.6767 10.7859Z" fill="black"/>
<path d="M10.1981 12.592C10.1981 12.6549 10.208 12.804 10.2212 12.9233L10.2478 13.1454L10.0092 13.1586C9.15756 13.215 8.81625 14.1992 9.38289 14.968C9.5552 15.2066 9.79047 15.3988 10.0523 15.5247C10.3074 15.644 10.7017 15.6738 10.9602 15.5877C11.1855 15.5114 11.4539 15.253 11.5136 15.0541C11.5666 14.8719 11.5633 14.5504 11.507 14.3881L11.4606 14.2555L11.6262 14.3649C11.8516 14.5173 12.0139 14.5206 12.1664 14.3682C12.289 14.2456 12.3486 14.0699 12.3453 13.8479L12.342 13.6988L12.3122 13.8446C12.2757 14.0302 12.2161 14.0964 12.1034 14.0666C12.057 14.0567 11.6362 13.7153 11.1623 13.3077C10.6918 12.9035 10.2809 12.5522 10.2511 12.5257C10.2014 12.4859 10.1947 12.4925 10.1981 12.592ZM10.2212 13.2382C10.2875 13.2514 10.4963 13.4072 10.8045 13.6689C11.2154 14.0235 11.2982 14.1097 11.3843 14.2853C11.5567 14.6266 11.5169 14.9912 11.2916 15.1834C11.1226 15.3226 10.9503 15.3557 10.6951 15.2927C10.4002 15.2198 10.1649 15.0707 9.86006 14.7758C9.4591 14.3814 9.2901 13.9539 9.41271 13.6391C9.532 13.3243 9.85343 13.1652 10.2212 13.2382Z" fill="black"/>
<path d="M6.95397 14.7426L6.81811 14.9414L7.05669 15.1071C7.18924 15.1999 7.52061 15.4286 7.79233 15.6142C8.06736 15.803 8.28938 15.9754 8.28938 15.9952C8.28938 16.0383 7.30853 17.4931 7.27871 17.4931C7.26877 17.4931 6.92746 17.2644 6.51988 16.9828L5.7743 16.4724L5.63181 16.6746L5.48601 16.88L5.57879 16.9463C5.6285 16.9828 6.33762 17.4699 7.15279 18.0266L8.634 19.044L8.76655 18.8418C8.83945 18.7325 8.89247 18.6297 8.88253 18.6165C8.8759 18.6032 8.52465 18.358 8.10713 18.0697C7.6896 17.7847 7.35492 17.5362 7.36486 17.5229C7.41457 17.4401 8.35234 16.0814 8.37222 16.0549C8.38879 16.0416 8.6572 16.204 8.97531 16.4227C9.29011 16.6414 9.64136 16.88 9.75403 16.9563L9.95947 17.0954L10.0986 16.8933C10.1715 16.7839 10.2213 16.6779 10.208 16.6646C10.1649 16.6249 7.16936 14.5736 7.12959 14.557C7.10971 14.5471 7.03018 14.6333 6.95397 14.7426Z" fill="black"/>
<path d="M24.2679 20.3331C24.0923 20.7307 24.0426 21.4134 24.1552 21.8342C24.4402 22.8947 25.3879 23.7828 26.8393 24.3494C27.8367 24.7372 28.9037 24.8962 30.5407 24.8962C31.8065 24.8995 32.7542 24.7935 33.8709 24.535C34.1427 24.472 34.3713 24.419 34.3746 24.419C34.3812 24.419 34.3846 28.7469 34.3846 34.0391C34.3846 40.511 34.3746 43.7486 34.3514 43.9375C34.252 44.7395 34.1029 45.0874 33.6721 45.5182L33.3673 45.8264H35.3356H37.3072L37.0819 45.6011C36.8002 45.3194 36.6611 45.0874 36.5186 44.6732C36.2932 44.0104 36.3065 44.6931 36.3065 33.8104V23.9717L36.5981 23.8954C39.2027 23.2194 41.6879 22.6594 42.7914 22.5003C43.3348 22.4208 43.9014 22.3777 44.9419 22.3313C46.3735 22.2683 47.0991 22.3711 48.3285 22.8151C49.0741 23.0836 49.8396 23.4978 50.2041 23.8358C50.3466 23.965 50.4228 23.9849 50.489 23.9054C50.5553 23.8259 50.5023 23.7165 50.267 23.4216C49.7302 22.7522 48.8455 21.927 48.196 21.4929C47.4703 21.0091 46.5756 20.6545 45.4887 20.4225C44.8757 20.29 44.0738 20.2767 43.2122 20.3861C41.34 20.628 40.2034 20.9826 36.8201 22.3876C34.0896 23.5243 33.7053 23.6635 32.3632 23.9849C31.1802 24.2732 30.3916 24.3693 29.4836 24.3428C28.7911 24.3229 28.4398 24.2633 27.8798 24.0744C26.4185 23.5873 25.4277 22.5533 24.6092 20.6578C24.4999 20.4126 24.4004 20.2237 24.3706 20.2171C24.3408 20.2105 24.301 20.2568 24.2679 20.3331Z" fill="black"/>
<path d="M3.88218 22.8947C3.96502 23.0604 4.03129 23.2029 4.02467 23.2062C4.01804 23.2095 3.94514 23.2393 3.85898 23.2724C3.62371 23.3586 3.46134 23.4945 3.35199 23.6933C3.26252 23.8557 3.25258 23.9021 3.25258 24.1705C3.25258 24.4323 3.26252 24.4919 3.34868 24.6676C3.53756 25.052 3.92526 25.3403 4.42893 25.4662C4.8332 25.5689 5.2673 25.4795 5.54233 25.2376C5.9234 24.9029 5.96317 24.366 5.63511 23.9385L5.54896 23.8225L5.68813 23.8723C6.07252 24.0081 6.30779 23.8424 6.29785 23.4415C6.29454 23.3487 6.26803 23.2227 6.24152 23.1598L6.1885 23.0438L6.20838 23.1995C6.22826 23.3719 6.18518 23.458 6.08246 23.458C6.04932 23.458 5.5357 23.2691 4.93593 23.0405C4.33947 22.8085 3.82253 22.613 3.78939 22.6031C3.73969 22.5898 3.75626 22.6461 3.88218 22.8947ZM4.75036 23.511C5.37002 23.7496 5.54233 23.8689 5.68482 24.1473C5.83725 24.4489 5.80411 24.7007 5.58872 24.8962C5.30706 25.1514 4.81995 25.1448 4.23343 24.8797C3.5243 24.5582 3.20619 23.9551 3.54087 23.5707C3.68336 23.4116 3.90206 23.3023 4.09757 23.2956C4.14396 23.2923 4.43556 23.3917 4.75036 23.511Z" fill="black"/>
<path d="M2.73893 25.5789C2.71905 25.6153 2.69254 25.7181 2.6826 25.8042C2.64946 26.1058 2.82178 26.3742 3.23599 26.6559C3.3354 26.7222 3.38841 26.7685 3.35196 26.7586C3.31551 26.7487 3.10675 26.689 2.88805 26.6227C2.66935 26.5598 2.47384 26.5068 2.45396 26.5068C2.40757 26.5068 2.29159 26.9342 2.32804 26.9707C2.35786 26.9972 4.77022 27.7064 4.85637 27.713C4.89945 27.7163 5.02206 27.3949 5.02537 27.2822C5.02537 27.2623 4.73045 27.1596 4.37258 27.0568C3.50771 26.805 3.28238 26.6724 3.11669 26.3245C3.02722 26.1356 3.01728 25.9832 3.09018 25.7943C3.11669 25.7214 3.1432 25.6485 3.14652 25.6319C3.15314 25.6054 2.89799 25.5126 2.81515 25.5126C2.79195 25.5126 2.75882 25.5424 2.73893 25.5789Z" fill="black"/>
<path d="M22.0908 25.9666C22.4984 26.3775 22.6376 26.689 22.7602 27.4678C22.8232 27.8787 22.8232 43.6194 22.7602 44.0369C22.6343 44.8621 22.4321 45.2763 21.9483 45.6905L21.7893 45.8264H23.7676H25.7458L25.6066 45.717C25.272 45.4519 24.9704 44.9317 24.8412 44.4015C24.7252 43.9143 24.702 43.4703 24.7153 41.8829C24.7252 40.448 24.7318 40.3586 24.8047 40.0272C25.0765 38.811 25.6762 37.8865 26.5776 37.3032C27.3629 36.7962 28.2543 36.4383 29.9277 35.9644C31.4222 35.5403 32.1909 35.2453 33.0193 34.7781L33.3573 34.5892V34.1186V33.6514L33.185 33.8171C32.8404 34.1484 32.2705 34.5329 31.78 34.7615C31.4056 34.9371 30.7197 35.1857 30.0934 35.3679C29.2881 35.6032 28.1449 35.9777 27.7738 36.1235C26.4616 36.6438 25.4708 37.3861 24.871 38.2874L24.7252 38.5095L24.7153 33.31C24.7086 29.7742 24.7153 27.998 24.7418 27.7494C24.7915 27.2457 24.8876 26.8779 25.0632 26.5067C25.1858 26.2549 25.2653 26.1422 25.4675 25.9368L25.7226 25.6783H23.7609H21.8025L22.0908 25.9666Z" fill="black"/>
<path d="M43.8782 25.9997C43.2023 26.0892 42.407 26.4968 41.8105 27.0568C40.8761 27.935 40.5546 29.3136 40.8959 30.997C41.1246 32.137 41.8105 33.7574 43.0001 35.9678C43.6363 37.1541 44.5509 39.0099 45.0413 40.1167C45.5583 41.2831 45.9526 42.5689 46.1382 43.689C46.221 44.196 46.221 45.2399 46.1382 45.7369C46.052 46.2506 45.9029 46.8404 45.7704 47.1785C45.1308 48.842 43.8252 50.1344 42.1054 50.8137C41.7111 50.9695 40.7899 51.2015 40.2663 51.281C39.6533 51.3705 38.7818 51.3605 38.1588 51.2512C35.9287 50.8601 34.2156 49.9455 32.8503 48.4211C32.4162 47.934 32.0318 47.4171 31.7369 46.9266C30.0039 44.0237 30.3386 40.3288 32.5223 38.304C32.6813 38.1582 32.9564 37.9295 33.132 37.797L33.4567 37.5584V37.1508C33.4567 36.9288 33.4435 36.7465 33.4302 36.7465C33.3573 36.7465 32.4328 37.2336 32.0915 37.4524C31.3227 37.9461 30.8455 38.357 30.3916 38.9171C29.202 40.3884 28.5724 42.3668 28.7149 44.1861C28.8706 46.1611 29.6692 47.9705 31.0046 49.3822C32.287 50.7375 34.2255 51.6223 36.6213 51.9438C37.2873 52.0365 38.7619 52.0266 39.4777 51.9305C41.8934 51.6057 43.7523 50.7342 45.1871 49.2529C47.1389 47.2414 47.9806 44.4048 47.4902 41.4985C47.2814 40.2559 46.8075 38.874 46.1282 37.5087C45.7008 36.6537 45.038 35.5535 43.8053 33.6613C42.5329 31.7095 41.8735 30.3906 41.6548 29.3732C41.5786 29.012 41.5786 28.4122 41.6548 28.1305C41.8436 27.4214 42.3407 26.8845 43.0233 26.6492C43.3911 26.5233 44.0274 26.5001 44.4217 26.6029C45.3462 26.8348 46.1117 27.5672 46.1779 28.273L46.1978 28.5116L46.3005 28.3294C46.4762 28.0245 46.5292 27.819 46.5292 27.4678C46.5259 27.1927 46.5159 27.1331 46.4397 26.9873C46.2044 26.5399 45.5616 26.1489 44.8723 26.0262C44.6073 25.9799 44.1235 25.9666 43.8782 25.9997Z" fill="black"/>
<path d="M1.01251 27.9947C0.840203 28.1338 0.956181 28.4288 1.18483 28.4288C1.31737 28.4288 1.41347 28.3227 1.41347 28.1802C1.41347 27.9615 1.18483 27.8555 1.01251 27.9947Z" fill="black"/>
<path d="M1.98011 28.2532C1.96354 28.3227 1.93703 28.4321 1.92709 28.4951L1.90721 28.6111L3.0438 28.8695C3.67009 29.012 4.22347 29.1247 4.27318 29.1247C4.51839 29.1247 4.64762 28.9457 4.62111 28.6508C4.60786 28.4785 4.51176 28.23 4.46206 28.23C4.44549 28.23 4.45543 28.273 4.48194 28.3294C4.51176 28.3824 4.52833 28.4686 4.5217 28.5183C4.51176 28.5978 4.49519 28.6111 4.38916 28.621C4.31626 28.6276 3.79601 28.5249 3.17304 28.3824C2.56995 28.2432 2.06627 28.1305 2.04639 28.1305C2.0265 28.1305 1.99668 28.1869 1.98011 28.2532Z" fill="black"/>
<path d="M4.0644 29.7311C4.0644 29.7344 4.09422 29.7974 4.12736 29.867C4.22346 30.0525 4.17044 30.152 3.97493 30.152C3.91528 30.152 3.37847 30.0757 2.78201 29.9863C2.18223 29.8935 1.67524 29.8239 1.65204 29.8272C1.62222 29.8338 1.68186 29.9332 1.8111 30.1022L2.01323 30.364L1.89725 30.4237C1.60565 30.5728 1.43997 30.8412 1.42008 31.1958C1.38363 31.8751 1.96353 32.412 2.78863 32.4617C3.13988 32.4849 3.39172 32.4252 3.64025 32.2662C4.18701 31.9182 4.25659 31.2223 3.78605 30.7716L3.63362 30.6258L3.8225 30.6424C4.04783 30.6623 4.20357 30.5927 4.26653 30.4436C4.32287 30.3077 4.2831 30.0426 4.18038 29.867C4.10748 29.7444 4.0644 29.6913 4.0644 29.7311ZM3.48782 30.659C3.68995 30.7617 3.90866 30.9937 3.96499 31.1627C4.17044 31.789 3.42155 32.1701 2.46721 31.9249C2.07288 31.8221 1.7382 31.5935 1.60896 31.3416C1.53606 31.1925 1.52612 30.9473 1.59239 30.8213C1.66198 30.6888 1.84092 30.5297 1.99998 30.4568C2.13915 30.3972 2.14247 30.3972 2.7323 30.4866C3.16971 30.5529 3.36521 30.596 3.48782 30.659Z" fill="black"/>
<path d="M0.210611 31.9746C0.180788 32.0541 -0.0213466 34.957 0.00184914 34.9802C0.044927 35.0233 0.054868 34.9537 0.0913185 34.3903C0.114514 34.0722 0.141024 33.8038 0.150965 33.7905C0.160906 33.7773 0.976071 33.827 1.96023 33.8966C2.9444 33.9695 3.77282 34.0291 3.80264 34.0291C3.84572 34.0291 3.86228 33.9794 3.87885 33.7939C3.89211 33.6646 3.89874 33.5519 3.89211 33.5453C3.88548 33.5387 3.05375 33.4757 2.04308 33.3995C1.03572 33.3266 0.203984 33.2603 0.194043 33.2537C0.187415 33.2438 0.197356 32.9621 0.220552 32.6274C0.260316 32.0541 0.257002 31.8486 0.210611 31.9746Z" fill="black"/>
<path d="M37.3669 36.7399V37.0415L37.5591 37.0779C38.0793 37.1839 38.4836 37.3066 38.7752 37.4491C39.1662 37.6446 39.713 38.1151 40.0311 38.536C40.1968 38.7514 40.4155 39.1093 40.4155 39.1623C40.4155 39.2518 40.4751 39.1855 40.4917 39.0761C40.5116 38.9701 40.4917 38.9138 40.3757 38.7116C39.7594 37.6313 38.5598 36.7068 37.4729 36.4682L37.3669 36.4416V36.7399Z" fill="black"/>
<path d="M2.34131 37.5252L2.19551 37.6744L2.34463 37.8235L2.49374 37.9726L2.63954 37.8235L2.78535 37.6744L2.63623 37.5252L2.48711 37.3761L2.34131 37.5252Z" fill="black"/>
<path d="M2.94109 41.7504C2.93778 41.8929 3.09352 42.8274 3.25258 43.6061C4.37923 49.1303 6.93407 54.2833 10.6818 58.6012C11.5799 59.6352 12.8556 60.911 13.8895 61.809C17.8725 65.2654 22.5713 67.7242 27.6413 69.0001C29.646 69.5071 31.5083 69.802 33.6721 69.9577C34.4674 70.0141 37.0985 70.0141 37.864 69.9577C41.4295 69.6926 44.5476 68.9967 47.7155 67.764C48.0369 67.6381 47.9044 67.6579 47.4869 67.8004C44.9254 68.6654 42.1021 69.232 39.143 69.4739C38.2848 69.5435 35.8658 69.5733 34.9313 69.5236C30.0735 69.2685 25.4443 68.0424 21.1531 65.8751C14.7113 62.6209 9.48229 57.4348 6.19844 51.0457C4.74042 48.2057 3.79271 45.5447 3.07364 42.2607C3.00074 41.9326 2.94109 41.704 2.94109 41.7504Z" fill="black"/>
<path d="M66.799 48.3118C66.6664 48.3416 66.5041 48.4874 66.4411 48.6332C66.3715 48.7956 66.3815 49.0607 66.4676 49.2363C66.5074 49.3192 66.6134 49.4617 66.7029 49.5511C66.7924 49.6406 66.8454 49.7036 66.8189 49.697C66.7957 49.687 66.4643 49.5478 66.0832 49.3921C65.7022 49.2363 65.3874 49.1104 65.3841 49.1137C65.3609 49.1469 65.2614 49.4418 65.2714 49.4517C65.2913 49.4716 67.7931 50.4989 67.8163 50.4989C67.8461 50.4989 67.9555 50.1973 67.9356 50.1675C67.9256 50.1543 67.7633 50.078 67.5711 50.0018C66.8156 49.697 66.3384 49.1933 66.461 48.8221C66.5505 48.5537 66.7261 48.5504 67.3226 48.7956C68.0714 49.1071 68.1941 49.1435 68.31 49.1038C68.3697 49.0839 68.426 49.0309 68.4492 48.9712C68.4989 48.8586 68.4757 48.557 68.4194 48.5007C68.3862 48.4708 68.3862 48.4808 68.4161 48.557C68.4625 48.6829 68.4293 48.7757 68.3365 48.7757C68.2935 48.7757 68.0085 48.673 67.7003 48.5471C67.1105 48.3085 66.9779 48.2753 66.799 48.3118Z" fill="black"/>
<path d="M65.0195 50.3067C65.0958 50.542 65.0991 50.5486 65.2648 50.6215C65.3575 50.6646 65.4337 50.7043 65.4337 50.7143C65.4337 50.7242 65.4106 50.7772 65.384 50.8303C65.3542 50.8866 65.3476 50.9297 65.3642 50.9297C65.384 50.9297 65.4205 50.8866 65.4503 50.8336L65.5 50.7342L66.2854 51.1153C67.1867 51.5494 67.296 51.5726 67.4054 51.3572C67.4617 51.2544 67.4683 51.049 67.4186 50.9462C67.3954 50.8932 67.3921 50.9032 67.4054 50.9827C67.4286 51.1053 67.359 51.1782 67.2496 51.1517C67.2066 51.1385 66.8321 50.9661 66.4179 50.7673L65.6657 50.3995L65.7187 50.2669C65.7485 50.1907 65.7651 50.1211 65.7519 50.1112C65.7419 50.1012 65.7088 50.1476 65.679 50.2205C65.6491 50.2901 65.6226 50.3531 65.616 50.3597C65.6127 50.363 65.4636 50.3001 65.2879 50.2172C65.109 50.1344 64.9599 50.0681 64.9533 50.0681C64.95 50.0681 64.9765 50.1774 65.0195 50.3067Z" fill="black"/>
<path d="M65.2747 51.6654C65.109 51.7217 64.8837 51.9404 64.7843 52.1426C64.4993 52.7225 64.8837 53.3819 65.5762 53.5112C66.0269 53.594 66.398 53.4018 66.5902 52.9843C66.8785 52.3513 66.3881 51.6588 65.6326 51.6356C65.4967 51.6322 65.3343 51.6455 65.2747 51.6654ZM65.848 52.0332C66.1594 52.1823 66.4676 52.474 66.5273 52.6761C66.6466 53.0738 66.3152 53.3554 65.848 53.2494C65.4603 53.1632 65.0063 52.855 64.8704 52.5833C64.7909 52.4309 64.7843 52.1989 64.8572 52.0929C64.9698 51.9371 65.0991 51.8841 65.3575 51.9007C65.5431 51.9106 65.6491 51.9404 65.848 52.0332Z" fill="black"/>
<path d="M63.25 53.1732C63.1606 53.3157 63.1573 53.3322 63.207 53.3687C63.4919 53.5609 65.3012 54.6677 65.3642 54.6843C65.4569 54.7075 65.5961 54.6611 65.6525 54.5816C65.7187 54.4954 65.7452 54.2601 65.7022 54.1541L65.6657 54.0613L65.6823 54.1541C65.7088 54.2866 65.6458 54.386 65.5497 54.3628C65.4868 54.3463 64.834 53.9486 63.6046 53.1798L63.3461 53.0174L63.25 53.1732Z" fill="black"/>
<path d="M63.5748 54.343C63.4124 54.4291 63.1904 54.681 63.0943 54.8831C62.8557 55.41 63.038 55.9402 63.545 56.1921C63.7968 56.318 63.9592 56.3445 64.1878 56.2981C64.6981 56.1921 65.0593 55.6287 64.9003 55.1747C64.8804 55.1184 64.8506 55.072 64.8307 55.072C64.8141 55.072 64.8108 55.0886 64.824 55.1085C64.9367 55.2907 64.8771 55.642 64.7014 55.8242C64.5391 55.9899 64.4264 56.0396 64.2011 56.0396C63.9525 56.0396 63.6477 55.8971 63.4356 55.6851C63.2268 55.4796 63.1639 55.3338 63.1639 55.0654C63.1639 54.8003 63.2235 54.6975 63.4489 54.5816C63.5748 54.5153 63.6311 54.5053 63.8531 54.5186L64.1083 54.5318L63.9194 54.4026C63.8134 54.333 63.7206 54.2767 63.7106 54.2767C63.7007 54.28 63.6411 54.3065 63.5748 54.343Z" fill="black"/>
<path d="M61.2088 57.5375L61.2353 57.7993L61.1392 57.7794C61.0001 57.7529 60.735 57.8357 60.6256 57.9417C60.165 58.3792 60.4036 59.1911 61.0796 59.5026C61.2353 59.5722 61.3016 59.5854 61.5037 59.5722C61.7953 59.5589 61.9809 59.4529 62.0869 59.2474C62.1598 59.1049 62.1764 58.8166 62.1201 58.6708C62.0803 58.5647 62.0803 58.5647 62.2195 58.6675C62.3355 58.7536 62.478 58.7735 62.5807 58.7172C62.6602 58.6774 62.7497 58.4488 62.7464 58.3096L62.7397 58.2035L62.7265 58.303C62.7099 58.4189 62.6602 58.4852 62.5973 58.4852C62.5707 58.4852 62.2692 58.2367 61.9279 57.9318C61.5866 57.6302 61.2817 57.3552 61.2453 57.3287C61.1856 57.279 61.1856 57.2856 61.2088 57.5375ZM61.6131 58.1373C61.8749 58.3659 61.9908 58.4952 62.0439 58.6078C62.1897 58.9193 62.1135 59.2308 61.8649 59.3369C61.6297 59.433 61.3082 59.317 60.9868 59.0221C60.7714 58.8199 60.6554 58.641 60.5958 58.4256C60.5494 58.2466 60.5759 58.1174 60.6886 57.9848C60.7946 57.8556 60.8675 57.8258 61.0829 57.8258C61.2552 57.8224 61.2585 57.8224 61.6131 58.1373Z" fill="black"/>
<path d="M59.4526 59.2143L59.3233 59.3468L59.7839 59.8141C60.4202 60.4537 60.6024 60.6061 60.7449 60.6061C60.8277 60.6061 60.8774 60.5796 60.9404 60.5067C61.0199 60.4106 61.0928 60.1289 61.0464 60.0858C61.0365 60.0726 61.0266 60.109 61.0266 60.162C61.0266 60.2714 60.9769 60.341 60.8973 60.341C60.8708 60.341 60.5626 60.056 60.2147 59.7114L59.5818 59.0817L59.4526 59.2143Z" fill="black"/>
<path d="M58.929 59.7544C58.8627 59.8207 58.8064 59.9234 58.7931 59.993C58.7699 60.1156 58.8329 60.3907 58.929 60.5895C58.9588 60.6525 58.8859 60.5928 58.7236 60.4172L58.4684 60.1455L58.3392 60.2482C58.2696 60.3045 58.2099 60.3642 58.2099 60.3774C58.2099 60.4006 58.8097 61.0601 59.3465 61.6268L59.5453 61.8388L59.6713 61.7096L59.7972 61.5837L59.4459 61.2026C59.0748 60.8016 58.9389 60.5763 58.9389 60.3675C58.9389 60.1952 58.9886 60.0825 59.1278 59.9533L59.2471 59.8373L59.1444 59.7346L59.0417 59.6318L58.929 59.7544Z" fill="black"/>
<path d="M57.6797 60.9242C57.6797 60.9806 57.6698 61.0932 57.6598 61.1761L57.64 61.3219L57.4478 61.3086C57.3417 61.302 57.2025 61.312 57.1363 61.3352C56.9805 61.3849 56.7718 61.6268 56.7188 61.8157C56.5464 62.4254 57.0932 63.1578 57.7195 63.1578C58.1569 63.1578 58.4551 62.8231 58.3955 62.3989L58.3756 62.2564L58.5081 62.3757C58.581 62.442 58.6738 62.495 58.7169 62.495C58.8163 62.495 58.929 62.4121 58.9886 62.2962C59.0483 62.1802 59.0516 62.1371 58.9986 62.1901C58.9058 62.2829 58.8296 62.2166 58.306 61.5737C57.6234 60.742 57.6797 60.8016 57.6797 60.9242ZM57.6201 61.3782C57.6698 61.4014 57.8355 61.5737 57.9945 61.766C58.306 62.147 58.3988 62.3558 58.3557 62.5778C58.3259 62.7502 58.2099 62.8993 58.0674 62.9556C57.9548 62.9987 57.9216 62.9954 57.7526 62.9424C57.3848 62.8297 56.9573 62.2796 56.9242 61.8852C56.8977 61.5506 57.0766 61.3352 57.3815 61.3352C57.4643 61.3385 57.5704 61.355 57.6201 61.3782Z" fill="black"/>
<path d="M54.0844 62.5646C54.0115 62.6209 53.9552 62.6772 53.9585 62.6938C53.9651 62.7203 55.2873 64.6225 55.4497 64.8412L55.5292 64.9472L55.675 64.8445L55.8175 64.7418L55.6286 64.47C55.2873 63.9961 55.1216 63.5885 55.1183 63.2439C55.115 62.9258 55.2541 62.727 55.4795 62.727C55.6385 62.727 55.7512 62.8429 56.1621 63.4295C56.5465 63.9763 56.6459 64.0724 56.8049 64.0326C56.8977 64.0094 57.0833 63.7774 57.08 63.6913C57.08 63.6581 57.07 63.6648 57.0502 63.7112C57.0303 63.7609 56.9905 63.7874 56.9342 63.7874C56.8679 63.7874 56.8182 63.7377 56.679 63.5355C56.5829 63.3963 56.4073 63.1478 56.288 62.9821C55.9732 62.5414 55.7578 62.442 55.4397 62.5977C55.1117 62.7535 54.9891 63.1279 55.1117 63.5885C55.1382 63.688 55.1547 63.7708 55.1514 63.7741C55.1481 63.7774 54.936 63.4825 54.6842 63.1213C54.4324 62.7601 54.2236 62.4618 54.2203 62.4618C54.217 62.4618 54.1573 62.5082 54.0844 62.5646Z" fill="black"/>
<path d="M53.5211 63.8172C53.246 63.8636 52.9412 64.0724 52.855 64.2745C52.7523 64.5164 52.8484 64.7981 53.0737 64.9141C53.193 64.9737 53.2626 64.9837 53.7133 64.9771C54.1275 64.9704 54.2368 64.9804 54.3263 65.0268C54.4622 65.0964 54.5781 65.3151 54.5483 65.4443C54.5251 65.5537 54.3396 65.7326 54.2136 65.7624C54.0678 65.7989 53.8259 65.7492 53.594 65.6299L53.3686 65.5139L53.4416 65.6365C53.4813 65.7028 53.5376 65.8022 53.5675 65.8519C53.6172 65.9414 53.6304 65.9447 53.8027 65.9314C54.0877 65.9049 54.3561 65.7889 54.5351 65.61C54.8068 65.3349 54.8333 65.0433 54.6013 64.8114C54.429 64.6357 54.2865 64.6092 53.753 64.6357C53.3388 64.6556 53.3057 64.6523 53.1997 64.5893C52.9246 64.4203 52.9578 64.0923 53.2593 63.9663C53.4647 63.8802 53.6139 63.9266 53.9684 64.1751C54.0513 64.2348 54.0513 64.2348 53.9552 64.0691C53.9022 63.9763 53.8425 63.8769 53.8226 63.8437C53.7862 63.7841 53.7431 63.7808 53.5211 63.8172Z" fill="black"/>
</svg>
